#N canvas 205 133 454 313 12;
#N canvas 345 264 1051 505 Tempo 0;
#X obj 74 29 bng 25 250 50 0 tempoS empty empty 17 7 0 10 -114521 -33289
-33289;
#X text 25 54 play click;
#X floatatom 121 30 5 0 0 0 - - tempoI;
#X text 163 27 guess the tempo;
#X obj 121 54 bng 15 250 50 0 tempoA empty empty 17 7 0 10 -262144
-1 -1;
#X text 164 52 confirm answer;
#X floatatom 295 47 5 0 0 0 - score -;
#X text 293 25 Score;
#X symbolatom 295 85 12 0 0 0 - tempoR -;
#X text 292 65 Result;
#X restore 10 126 pd Tempo;
#N canvas 0 22 450 278 (subpatch) 0;
#X coords 0 1 100 -1 98 128 1 0 0;
#X restore 6 23 graph;
#X obj 110 95 bng 15 250 50 0 resetScore startup empty 17 7 0 10 -262144
-1 -1;
#X text 125 92 reset score;
#N canvas 303 227 822 522 backend 0;
#X text 21 8 Increase Score;
#X obj 5 11 bng 15 250 50 0 scoreUp empty empty 17 7 0 10 -262144 -1
-1;
#N canvas 1400 463 450 300 score 0;
#X obj 105 103 outlet;
#X obj 155 103 s score;
#X floatatom 105 77 5 0 0 0 - - -;
#X obj 105 8 r scoreUp;
#X obj 105 31 f;
#X obj 105 54 + 1;
#X obj 11 8 r resetScore;
#X msg 11 31 -1;
#X connect 2 0 1 0;
#X connect 2 0 0 0;
#X connect 2 0 4 1;
#X connect 3 0 4 0;
#X connect 4 0 5 0;
#X connect 5 0 2 0;
#X connect 6 0 7 0;
#X connect 7 0 4 0;
#X restore 205 12 pd score;
#X floatatom 205 38 5 0 0 0 - - -;
#X text 244 38 current score;
#N canvas 401 249 450 300 int 0;
#N canvas 0 22 1440 801 int5 0;
#X obj 34 19 r int5S;
#X obj 34 43 random 13;
#X text 105 44 picks a random interval to check;
#X text 687 19 store which interval was chosen;
#X floatatom 617 43 5 0 0 0 - - -;
#X obj 41 67 s int5int;
#X obj 617 20 r int5int;
#N canvas 446 324 241 271 int5A 0;
#X obj 6 234 outlet;
#X msg 6 29 0;
#X msg 75 29 1;
#X msg 144 29 2;
#X msg 6 74 3;
#X msg 75 74 4;
#X msg 144 74 5;
#X msg 6 120 6;
#X msg 75 120 7;
#X msg 144 120 8;
#X msg 6 166 9;
#X msg 75 166 10;
#X msg 144 166 11;
#X msg 6 211 12;
#X obj 6 6 r int5a0;
#X obj 75 6 r int5a1;
#X obj 144 6 r int5a2;
#X obj 6 51 r int5a3;
#X obj 75 51 r int5a4;
#X obj 144 51 r int5a5;
#X obj 6 97 r int5a6;
#X obj 75 97 r int5a7;
#X obj 144 97 r int5a8;
#X obj 144 143 r int5a11;
#X obj 75 143 r int5a10;
#X obj 6 143 r int5a9;
#X obj 6 188 r int5a12;
#X connect 1 0 0 0;
#X connect 2 0 0 0;
#X connect 3 0 0 0;
#X connect 4 0 0 0;
#X connect 5 0 0 0;
#X connect 6 0 0 0;
#X connect 7 0 0 0;
#X connect 8 0 0 0;
#X connect 9 0 0 0;
#X connect 10 0 0 0;
#X connect 11 0 0 0;
#X connect 12 0 0 0;
#X connect 13 0 0 0;
#X connect 14 0 1 0;
#X connect 15 0 2 0;
#X connect 16 0 3 0;
#X connect 17 0 4 0;
#X connect 18 0 5 0;
#X connect 19 0 6 0;
#X connect 20 0 7 0;
#X connect 21 0 8 0;
#X connect 22 0 9 0;
#X connect 23 0 12 0;
#X connect 24 0 11 0;
#X connect 25 0 10 0;
#X connect 26 0 13 0;
#X restore 553 20 pd int5A;
#X floatatom 553 43 5 0 0 0 - - -;
#X text 391 19 which answer was given;
#X obj 553 65 ==;
#X text 588 65 check if answer was correct;
#X obj 553 89 tgl 20 0 empty empty empty 17 7 0 10 -262144 -1 -1 0
1;
#X obj 34 90 sel 0 1 2 3 4 5 6 7 8 9 10 11 12;
#X obj 585 144 bng 15 250 50 0 empty empty empty 17 7 0 10 -262144
-1 -1;
#X obj 553 144 bng 15 250 50 0 empty empty empty 17 7 0 10 -262144
-1 -1;
#X obj 553 115 sel 1;
#X text 498 142 correct;
#X text 604 142 incorrect;
#X obj 420 120 bng 15 250 50 0 empty empty empty 17 7 0 10 -262144
-1 -1;
#X msg 420 164 -1;
#X obj 420 140 delay 1;
#X text 319 118 reset checker;
#X obj 585 211 s int5R;
#X obj 458 164 symbol Correct!;
#X obj 585 187 symbol Incorrect!;
#X text 641 212 Send feedback of the result to the UI;
#X obj 501 211 s scoreUp;
#X text 348 211 Increase score by one;
#N canvas 672 273 1176 572 unison 0;
#X obj 37 37 inlet;
#X obj 37 133 makenote;
#X obj 37 179 noteout;
#X msg 102 90 100;
#X msg 102 133 1;
#X obj 69 63 delay 500;
#X msg 37 90 60;
#X msg 69 90 60;
#X connect 0 0 3 0;
#X connect 0 0 4 0;
#X connect 0 0 5 0;
#X connect 0 0 6 0;
#X connect 1 0 2 0;
#X connect 1 1 2 1;
#X connect 3 0 1 1;
#X connect 3 0 1 2;
#X connect 4 0 2 2;
#X connect 5 0 7 0;
#X connect 6 0 1 0;
#X connect 7 0 1 0;
#X restore 34 113 pd unison;
#N canvas 722 438 450 300 major-second 0;
#X obj 37 37 inlet;
#X obj 37 133 makenote;
#X obj 37 179 noteout;
#X msg 102 90 100;
#X msg 102 133 1;
#X obj 69 63 delay 500;
#X msg 37 90 60;
#X msg 69 90 62;
#X connect 0 0 3 0;
#X connect 0 0 4 0;
#X connect 0 0 5 0;
#X connect 0 0 6 0;
#X connect 1 0 2 0;
#X connect 1 1 2 1;
#X connect 3 0 1 1;
#X connect 3 0 1 2;
#X connect 4 0 2 2;
#X connect 5 0 7 0;
#X connect 6 0 1 0;
#X connect 7 0 1 0;
#X restore 68 151 pd major-second;
#N canvas 675 470 412 505 minor-second 0;
#X obj 10 6 inlet;
#X obj 10 102 makenote;
#X obj 29 145 noteout;
#X msg 75 59 100;
#X msg 75 102 1;
#X obj 42 32 delay 500;
#X msg 10 59 60;
#X msg 42 59 61;
#X connect 0 0 3 0;
#X connect 0 0 4 0;
#X connect 0 0 5 0;
#X connect 0 0 6 0;
#X connect 1 0 2 0;
#X connect 1 1 2 1;
#X connect 3 0 1 1;
#X connect 3 0 1 2;
#X connect 4 0 2 2;
#X connect 5 0 7 0;
#X connect 6 0 1 0;
#X connect 7 0 1 0;
#X restore 51 132 pd minor-second;
#N canvas 0 50 450 300 minor-third 0;
#X obj 37 37 inlet;
#X obj 37 133 makenote;
#X obj 37 179 noteout;
#X msg 102 90 100;
#X msg 102 133 1;
#X obj 69 63 delay 500;
#X msg 37 90 60;
#X msg 69 90 63;
#X connect 0 0 3 0;
#X connect 0 0 4 0;
#X connect 0 0 5 0;
#X connect 0 0 6 0;
#X connect 1 0 2 0;
#X connect 1 1 2 1;
#X connect 3 0 1 1;
#X connect 3 0 1 2;
#X connect 4 0 2 2;
#X connect 5 0 7 0;
#X connect 6 0 1 0;
#X connect 7 0 1 0;
#X restore 85 170 pd minor-third;
#N canvas 390 290 450 300 major-third 0;
#X obj 37 37 inlet;
#X obj 37 133 makenote;
#X obj 37 179 noteout;
#X msg 102 90 100;
#X msg 102 133 1;
#X obj 69 63 delay 500;
#X msg 37 90 60;
#X msg 69 90 64;
#X connect 0 0 3 0;
#X connect 0 0 4 0;
#X connect 0 0 5 0;
#X connect 0 0 6 0;
#X connect 1 0 2 0;
#X connect 1 1 2 1;
#X connect 3 0 1 1;
#X connect 3 0 1 2;
#X connect 4 0 2 2;
#X connect 5 0 7 0;
#X connect 6 0 1 0;
#X connect 7 0 1 0;
#X restore 102 189 pd major-third;
#N canvas 347 254 450 300 perfect-fourth 0;
#X obj 37 37 inlet;
#X obj 37 133 makenote;
#X obj 37 179 noteout;
#X msg 102 90 100;
#X msg 102 133 1;
#X obj 69 63 delay 500;
#X msg 37 90 60;
#X msg 69 90 65;
#X connect 0 0 3 0;
#X connect 0 0 4 0;
#X connect 0 0 5 0;
#X connect 0 0 6 0;
#X connect 1 0 2 0;
#X connect 1 1 2 1;
#X connect 3 0 1 1;
#X connect 3 0 1 2;
#X connect 4 0 2 2;
#X connect 5 0 7 0;
#X connect 6 0 1 0;
#X connect 7 0 1 0;
#X restore 119 208 pd perfect-fourth;
#N canvas 240 224 450 300 diminished-fifth 0;
#X obj 37 37 inlet;
#X obj 37 133 makenote;
#X obj 37 179 noteout;
#X msg 102 90 100;
#X msg 102 133 1;
#X obj 69 63 delay 500;
#X msg 37 90 60;
#X msg 69 90 66;
#X connect 0 0 3 0;
#X connect 0 0 4 0;
#X connect 0 0 5 0;
#X connect 0 0 6 0;
#X connect 1 0 2 0;
#X connect 1 1 2 1;
#X connect 3 0 1 1;
#X connect 3 0 1 2;
#X connect 4 0 2 2;
#X connect 5 0 7 0;
#X connect 6 0 1 0;
#X connect 7 0 1 0;
#X restore 136 227 pd diminished-fifth;
#N canvas 476 287 450 300 perfect-fifth 0;
#X obj 37 37 inlet;
#X obj 37 133 makenote;
#X obj 37 179 noteout;
#X msg 102 90 100;
#X msg 102 133 1;
#X obj 69 63 delay 500;
#X msg 37 90 60;
#X msg 69 90 67;
#X connect 0 0 3 0;
#X connect 0 0 4 0;
#X connect 0 0 5 0;
#X connect 0 0 6 0;
#X connect 1 0 2 0;
#X connect 1 1 2 1;
#X connect 3 0 1 1;
#X connect 3 0 1 2;
#X connect 4 0 2 2;
#X connect 5 0 7 0;
#X connect 6 0 1 0;
#X connect 7 0 1 0;
#X restore 153 246 pd perfect-fifth;
#N canvas 476 303 450 300 minor-sixth 0;
#X obj 37 37 inlet;
#X obj 37 133 makenote;
#X obj 37 179 noteout;
#X msg 102 90 100;
#X msg 102 133 1;
#X obj 69 63 delay 500;
#X msg 37 90 60;
#X msg 69 90 68;
#X connect 0 0 3 0;
#X connect 0 0 4 0;
#X connect 0 0 5 0;
#X connect 0 0 6 0;
#X connect 1 0 2 0;
#X connect 1 1 2 1;
#X connect 3 0 1 1;
#X connect 3 0 1 2;
#X connect 4 0 2 2;
#X connect 5 0 7 0;
#X connect 6 0 1 0;
#X connect 7 0 1 0;
#X restore 170 265 pd minor-sixth;
#N canvas 435 245 450 300 major-sixth 0;
#X obj 37 37 inlet;
#X obj 37 133 makenote;
#X obj 37 179 noteout;
#X msg 102 90 100;
#X msg 102 133 1;
#X obj 69 63 delay 500;
#X msg 37 90 60;
#X msg 69 90 69;
#X connect 0 0 3 0;
#X connect 0 0 4 0;
#X connect 0 0 5 0;
#X connect 0 0 6 0;
#X connect 1 0 2 0;
#X connect 1 1 2 1;
#X connect 3 0 1 1;
#X connect 3 0 1 2;
#X connect 4 0 2 2;
#X connect 5 0 7 0;
#X connect 6 0 1 0;
#X connect 7 0 1 0;
#X restore 187 284 pd major-sixth;
#N canvas 328 223 450 300 major-seventh 0;
#X obj 37 37 inlet;
#X obj 37 133 makenote;
#X obj 37 179 noteout;
#X msg 102 90 100;
#X msg 102 133 1;
#X obj 69 63 delay 500;
#X msg 37 90 60;
#X msg 69 90 71;
#X connect 0 0 3 0;
#X connect 0 0 4 0;
#X connect 0 0 5 0;
#X connect 0 0 6 0;
#X connect 1 0 2 0;
#X connect 1 1 2 1;
#X connect 3 0 1 1;
#X connect 3 0 1 2;
#X connect 4 0 2 2;
#X connect 5 0 7 0;
#X connect 6 0 1 0;
#X connect 7 0 1 0;
#X restore 221 322 pd major-seventh;
#N canvas 460 265 450 300 minor-seventh 0;
#X obj 37 37 inlet;
#X obj 37 133 makenote;
#X obj 37 179 noteout;
#X msg 102 90 100;
#X msg 102 133 1;
#X obj 69 63 delay 500;
#X msg 37 90 60;
#X msg 69 90 70;
#X connect 0 0 3 0;
#X connect 0 0 4 0;
#X connect 0 0 5 0;
#X connect 0 0 6 0;
#X connect 1 0 2 0;
#X connect 1 1 2 1;
#X connect 3 0 1 1;
#X connect 3 0 1 2;
#X connect 4 0 2 2;
#X connect 5 0 7 0;
#X connect 6 0 1 0;
#X connect 7 0 1 0;
#X restore 204 303 pd minor-seventh;
#N canvas 452 311 450 300 octave 0;
#X obj 37 37 inlet;
#X obj 37 133 makenote;
#X obj 37 179 noteout;
#X msg 102 90 100;
#X msg 102 133 1;
#X obj 69 63 delay 500;
#X msg 37 90 60;
#X msg 69 90 72;
#X connect 0 0 3 0;
#X connect 0 0 4 0;
#X connect 0 0 5 0;
#X connect 0 0 6 0;
#X connect 1 0 2 0;
#X connect 1 1 2 1;
#X connect 3 0 1 1;
#X connect 3 0 1 2;
#X connect 4 0 2 2;
#X connect 5 0 7 0;
#X connect 6 0 1 0;
#X connect 7 0 1 0;
#X restore 238 341 pd octave;
#X obj 600 164 float;
#X connect 0 0 1 0;
#X connect 1 0 5 0;
#X connect 1 0 13 0;
#X connect 4 0 10 1;
#X connect 4 0 42 1;
#X connect 6 0 4 0;
#X connect 7 0 8 0;
#X connect 8 0 10 0;
#X connect 10 0 12 0;
#X connect 12 0 16 0;
#X connect 13 0 29 0;
#X connect 13 1 31 0;
#X connect 13 2 30 0;
#X connect 13 3 32 0;
#X connect 13 4 33 0;
#X connect 13 5 34 0;
#X connect 13 6 35 0;
#X connect 13 7 36 0;
#X connect 13 8 37 0;
#X connect 13 9 38 0;
#X connect 13 10 40 0;
#X connect 13 11 39 0;
#X connect 13 12 41 0;
#X connect 14 0 25 0;
#X connect 14 0 42 0;
#X connect 15 0 19 0;
#X connect 15 0 24 0;
#X connect 15 0 27 0;
#X connect 16 0 15 0;
#X connect 16 1 14 0;
#X connect 19 0 21 0;
#X connect 20 0 4 0;
#X connect 21 0 20 0;
#X connect 24 0 23 0;
#X connect 25 0 23 0;
#X connect 42 0 13 0;
#X restore 10 10 pd int5;
#N canvas 737 386 450 300 int4 0;
#X text 105 44 picks a random interval to check;
#X text 687 19 store which interval was chosen;
#X floatatom 617 43 5 0 0 0 - - -;
#X floatatom 553 43 5 0 0 0 - - -;
#X text 391 19 which answer was given;
#X obj 553 65 ==;
#X text 588 65 check if answer was correct;
#X obj 553 89 tgl 20 0 empty empty empty 17 7 0 10 -262144 -1 -1 0
1;
#X obj 585 144 bng 15 250 50 0 empty empty empty 17 7 0 10 -262144
-1 -1;
#X obj 553 144 bng 15 250 50 0 empty empty empty 17 7 0 10 -262144
-1 -1;
#X obj 553 115 sel 1;
#X text 498 142 correct;
#X text 604 142 incorrect;
#X obj 420 120 bng 15 250 50 0 empty empty empty 17 7 0 10 -262144
-1 -1;
#X msg 420 164 -1;
#X obj 420 140 delay 1;
#X text 319 118 reset checker;
#X obj 458 164 symbol Correct!;
#X obj 585 187 symbol Incorrect!;
#X text 641 212 Send feedback of the result to the UI;
#X obj 501 211 s scoreUp;
#X text 348 211 Increase score by one;
#N canvas 240 224 450 300 diminished-fifth 0;
#X obj 37 37 inlet;
#X obj 37 133 makenote;
#X obj 37 179 noteout;
#X msg 102 90 100;
#X msg 102 133 1;
#X obj 69 63 delay 500;
#X msg 37 90 60;
#X msg 69 90 66;
#X connect 0 0 3 0;
#X connect 0 0 4 0;
#X connect 0 0 5 0;
#X connect 0 0 6 0;
#X connect 1 0 2 0;
#X connect 1 1 2 1;
#X connect 3 0 1 1;
#X connect 3 0 1 2;
#X connect 4 0 2 2;
#X connect 5 0 7 0;
#X connect 6 0 1 0;
#X connect 7 0 1 0;
#X restore 34 115 pd diminished-fifth;
#N canvas 476 303 450 300 minor-sixth 0;
#X obj 37 37 inlet;
#X obj 37 133 makenote;
#X obj 37 179 noteout;
#X msg 102 90 100;
#X msg 102 133 1;
#X obj 69 63 delay 500;
#X msg 37 90 60;
#X msg 69 90 68;
#X connect 0 0 3 0;
#X connect 0 0 4 0;
#X connect 0 0 5 0;
#X connect 0 0 6 0;
#X connect 1 0 2 0;
#X connect 1 1 2 1;
#X connect 3 0 1 1;
#X connect 3 0 1 2;
#X connect 4 0 2 2;
#X connect 5 0 7 0;
#X connect 6 0 1 0;
#X connect 7 0 1 0;
#X restore 54 134 pd minor-sixth;
#N canvas 460 265 450 300 minor-seventh 0;
#X obj 37 37 inlet;
#X obj 37 133 makenote;
#X obj 37 179 noteout;
#X msg 102 90 100;
#X msg 102 133 1;
#X obj 69 63 delay 500;
#X msg 37 90 60;
#X msg 69 90 70;
#X connect 0 0 3 0;
#X connect 0 0 4 0;
#X connect 0 0 5 0;
#X connect 0 0 6 0;
#X connect 1 0 2 0;
#X connect 1 1 2 1;
#X connect 3 0 1 1;
#X connect 3 0 1 2;
#X connect 4 0 2 2;
#X connect 5 0 7 0;
#X connect 6 0 1 0;
#X connect 7 0 1 0;
#X restore 74 153 pd minor-seventh;
#X obj 600 164 float;
#X obj 34 19 r int4S;
#X obj 34 43 random 3;
#X obj 41 67 s int4int;
#X obj 34 90 sel 0 1 2;
#N canvas -11 -11 2560 1330 int4A 0;
#X obj 6 234 outlet;
#X msg 6 29 0;
#X msg 75 29 1;
#X msg 144 29 2;
#X obj 6 6 r int4a0;
#X obj 75 6 r int4a1;
#X obj 144 6 r int4a2;
#X connect 1 0 0 0;
#X connect 2 0 0 0;
#X connect 3 0 0 0;
#X connect 4 0 1 0;
#X connect 5 0 2 0;
#X connect 6 0 3 0;
#X restore 553 20 pd int4A;
#X obj 617 20 r int4int;
#X obj 585 211 s int4R;
#X connect 2 0 5 1;
#X connect 2 0 25 1;
#X connect 3 0 5 0;
#X connect 5 0 7 0;
#X connect 7 0 10 0;
#X connect 8 0 18 0;
#X connect 8 0 25 0;
#X connect 9 0 13 0;
#X connect 9 0 17 0;
#X connect 9 0 20 0;
#X connect 10 0 9 0;
#X connect 10 1 8 0;
#X connect 13 0 15 0;
#X connect 14 0 2 0;
#X connect 15 0 14 0;
#X connect 17 0 32 0;
#X connect 18 0 32 0;
#X connect 25 0 29 0;
#X connect 26 0 27 0;
#X connect 27 0 28 0;
#X connect 27 0 29 0;
#X connect 29 0 22 0;
#X connect 29 1 23 0;
#X connect 29 2 24 0;
#X connect 30 0 3 0;
#X connect 31 0 2 0;
#X restore 10 34 pd int4;
#N canvas 242 0 1842 1318 int3 0;
#X text 105 44 picks a random interval to check;
#X text 687 19 store which interval was chosen;
#X floatatom 617 43 5 0 0 0 - - -;
#X floatatom 553 43 5 0 0 0 - - -;
#X text 391 19 which answer was given;
#X obj 553 65 ==;
#X text 588 65 check if answer was correct;
#X obj 553 89 tgl 20 0 empty empty empty 17 7 0 10 -262144 -1 -1 0
1;
#X obj 585 144 bng 15 250 50 0 empty empty empty 17 7 0 10 -262144
-1 -1;
#X obj 553 144 bng 15 250 50 0 empty empty empty 17 7 0 10 -262144
-1 -1;
#X obj 553 115 sel 1;
#X text 498 142 correct;
#X text 604 142 incorrect;
#X obj 420 120 bng 15 250 50 0 empty empty empty 17 7 0 10 -262144
-1 -1;
#X msg 420 164 -1;
#X obj 420 140 delay 1;
#X text 319 118 reset checker;
#X obj 458 164 symbol Correct!;
#X obj 585 187 symbol Incorrect!;
#X text 641 212 Send feedback of the result to the UI;
#X obj 501 211 s scoreUp;
#X text 348 211 Increase score by one;
#N canvas 672 273 1176 572 unison 0;
#X obj 37 37 inlet;
#X obj 37 133 makenote;
#X obj 37 179 noteout;
#X msg 102 90 100;
#X msg 102 133 1;
#X obj 69 63 delay 500;
#X msg 37 90 60;
#X msg 69 90 60;
#X connect 0 0 3 0;
#X connect 0 0 4 0;
#X connect 0 0 5 0;
#X connect 0 0 6 0;
#X connect 1 0 2 0;
#X connect 1 1 2 1;
#X connect 3 0 1 1;
#X connect 3 0 1 2;
#X connect 4 0 2 2;
#X connect 5 0 7 0;
#X connect 6 0 1 0;
#X connect 7 0 1 0;
#X restore 34 113 pd unison;
#N canvas 722 438 450 300 major-second 0;
#X obj 37 37 inlet;
#X obj 37 133 makenote;
#X obj 37 179 noteout;
#X msg 102 90 100;
#X msg 102 133 1;
#X obj 69 63 delay 500;
#X msg 37 90 60;
#X msg 69 90 62;
#X connect 0 0 3 0;
#X connect 0 0 4 0;
#X connect 0 0 5 0;
#X connect 0 0 6 0;
#X connect 1 0 2 0;
#X connect 1 1 2 1;
#X connect 3 0 1 1;
#X connect 3 0 1 2;
#X connect 4 0 2 2;
#X connect 5 0 7 0;
#X connect 6 0 1 0;
#X connect 7 0 1 0;
#X restore 66 151 pd major-second;
#N canvas 675 470 412 505 minor-second 0;
#X obj 10 6 inlet;
#X obj 10 102 makenote;
#X obj 29 145 noteout;
#X msg 75 59 100;
#X msg 75 102 1;
#X obj 42 32 delay 500;
#X msg 10 59 60;
#X msg 42 59 61;
#X connect 0 0 3 0;
#X connect 0 0 4 0;
#X connect 0 0 5 0;
#X connect 0 0 6 0;
#X connect 1 0 2 0;
#X connect 1 1 2 1;
#X connect 3 0 1 1;
#X connect 3 0 1 2;
#X connect 4 0 2 2;
#X connect 5 0 7 0;
#X connect 6 0 1 0;
#X connect 7 0 1 0;
#X restore 50 132 pd minor-second;
#N canvas 0 50 450 300 minor-third 0;
#X obj 37 37 inlet;
#X obj 37 133 makenote;
#X obj 37 179 noteout;
#X msg 102 90 100;
#X msg 102 133 1;
#X obj 69 63 delay 500;
#X msg 37 90 60;
#X msg 69 90 63;
#X connect 0 0 3 0;
#X connect 0 0 4 0;
#X connect 0 0 5 0;
#X connect 0 0 6 0;
#X connect 1 0 2 0;
#X connect 1 1 2 1;
#X connect 3 0 1 1;
#X connect 3 0 1 2;
#X connect 4 0 2 2;
#X connect 5 0 7 0;
#X connect 6 0 1 0;
#X connect 7 0 1 0;
#X restore 81 170 pd minor-third;
#N canvas 390 290 450 300 major-third 0;
#X obj 37 37 inlet;
#X obj 37 133 makenote;
#X obj 37 179 noteout;
#X msg 102 90 100;
#X msg 102 133 1;
#X obj 69 63 delay 500;
#X msg 37 90 60;
#X msg 69 90 64;
#X connect 0 0 3 0;
#X connect 0 0 4 0;
#X connect 0 0 5 0;
#X connect 0 0 6 0;
#X connect 1 0 2 0;
#X connect 1 1 2 1;
#X connect 3 0 1 1;
#X connect 3 0 1 2;
#X connect 4 0 2 2;
#X connect 5 0 7 0;
#X connect 6 0 1 0;
#X connect 7 0 1 0;
#X restore 97 189 pd major-third;
#N canvas 376 242 450 300 perfect-fourth 0;
#X obj 37 37 inlet;
#X obj 37 133 makenote;
#X obj 37 179 noteout;
#X msg 102 90 100;
#X msg 102 133 1;
#X obj 69 63 delay 500;
#X msg 37 90 60;
#X msg 69 90 65;
#X connect 0 0 3 0;
#X connect 0 0 4 0;
#X connect 0 0 5 0;
#X connect 0 0 6 0;
#X connect 1 0 2 0;
#X connect 1 1 2 1;
#X connect 3 0 1 1;
#X connect 3 0 1 2;
#X connect 4 0 2 2;
#X connect 5 0 7 0;
#X connect 6 0 1 0;
#X connect 7 0 1 0;
#X restore 114 208 pd perfect-fourth;
#N canvas 1016 305 744 544 perfect-fifth 0;
#X obj 37 37 inlet;
#X obj 37 133 makenote;
#X obj 37 179 noteout;
#X msg 102 90 100;
#X msg 102 133 1;
#X obj 69 63 delay 500;
#X msg 37 90 60;
#X msg 69 90 67;
#X connect 0 0 3 0;
#X connect 0 0 4 0;
#X connect 0 0 5 0;
#X connect 0 0 6 0;
#X connect 1 0 2 0;
#X connect 1 1 2 1;
#X connect 3 0 1 1;
#X connect 3 0 1 2;
#X connect 4 0 2 2;
#X connect 5 0 7 0;
#X connect 6 0 1 0;
#X connect 7 0 1 0;
#X coords 0 0 0.5 0.5 0 0 0;
#X restore 129 227 pd perfect-fifth;
#N canvas 435 245 450 300 major-sixth 0;
#X obj 37 37 inlet;
#X obj 37 133 makenote;
#X obj 37 179 noteout;
#X msg 102 90 100;
#X msg 102 133 1;
#X obj 69 63 delay 500;
#X msg 37 90 60;
#X msg 69 90 69;
#X connect 0 0 3 0;
#X connect 0 0 4 0;
#X connect 0 0 5 0;
#X connect 0 0 6 0;
#X connect 1 0 2 0;
#X connect 1 1 2 1;
#X connect 3 0 1 1;
#X connect 3 0 1 2;
#X connect 4 0 2 2;
#X connect 5 0 7 0;
#X connect 6 0 1 0;
#X connect 7 0 1 0;
#X restore 145 246 pd major-sixth;
#N canvas 328 223 450 300 major-seventh 0;
#X obj 37 37 inlet;
#X obj 37 133 makenote;
#X obj 37 179 noteout;
#X msg 102 90 100;
#X msg 102 133 1;
#X obj 69 63 delay 500;
#X msg 37 90 60;
#X msg 69 90 71;
#X connect 0 0 3 0;
#X connect 0 0 4 0;
#X connect 0 0 5 0;
#X connect 0 0 6 0;
#X connect 1 0 2 0;
#X connect 1 1 2 1;
#X connect 3 0 1 1;
#X connect 3 0 1 2;
#X connect 4 0 2 2;
#X connect 5 0 7 0;
#X connect 6 0 1 0;
#X connect 7 0 1 0;
#X restore 160 265 pd major-seventh;
#N canvas 452 311 450 300 octave 0;
#X obj 37 37 inlet;
#X obj 37 133 makenote;
#X obj 37 179 noteout;
#X msg 102 90 100;
#X msg 102 133 1;
#X obj 69 63 delay 500;
#X msg 37 90 60;
#X msg 69 90 72;
#X connect 0 0 3 0;
#X connect 0 0 4 0;
#X connect 0 0 5 0;
#X connect 0 0 6 0;
#X connect 1 0 2 0;
#X connect 1 1 2 1;
#X connect 3 0 1 1;
#X connect 3 0 1 2;
#X connect 4 0 2 2;
#X connect 5 0 7 0;
#X connect 6 0 1 0;
#X connect 7 0 1 0;
#X restore 176 284 pd octave;
#X obj 600 164 float;
#X obj 34 43 random 10;
#X obj 34 90 sel 0 1 2 3 4 5 6 7 8 9;
#X obj 34 19 r int3S;
#X obj 41 67 s int3int;
#N canvas 446 285 1112 772 int3A 0;
#X obj 6 234 outlet;
#X msg 6 29 0;
#X msg 75 29 1;
#X msg 144 29 2;
#X msg 6 74 3;
#X msg 75 74 4;
#X msg 144 74 5;
#X msg 6 120 6;
#X msg 75 120 7;
#X msg 144 120 8;
#X msg 6 166 9;
#X obj 6 6 r int3a0;
#X obj 75 6 r int3a1;
#X obj 144 6 r int3a2;
#X obj 6 51 r int3a3;
#X obj 75 51 r int3a4;
#X obj 144 51 r int3a5;
#X obj 6 97 r int3a6;
#X obj 75 97 r int3a7;
#X obj 144 97 r int3a8;
#X obj 6 143 r int3a9;
#X connect 1 0 0 0;
#X connect 2 0 0 0;
#X connect 3 0 0 0;
#X connect 4 0 0 0;
#X connect 5 0 0 0;
#X connect 6 0 0 0;
#X connect 7 0 0 0;
#X connect 8 0 0 0;
#X connect 9 0 0 0;
#X connect 10 0 0 0;
#X connect 11 0 1 0;
#X connect 12 0 2 0;
#X connect 13 0 3 0;
#X connect 14 0 4 0;
#X connect 15 0 5 0;
#X connect 16 0 6 0;
#X connect 17 0 7 0;
#X connect 18 0 8 0;
#X connect 19 0 9 0;
#X connect 20 0 10 0;
#X restore 553 20 pd int3A;
#X obj 617 20 r int3int;
#X obj 585 211 s int3R;
#X connect 2 0 5 1;
#X connect 2 0 32 1;
#X connect 3 0 5 0;
#X connect 5 0 7 0;
#X connect 7 0 10 0;
#X connect 8 0 18 0;
#X connect 8 0 32 0;
#X connect 9 0 13 0;
#X connect 9 0 17 0;
#X connect 9 0 20 0;
#X connect 10 0 9 0;
#X connect 10 1 8 0;
#X connect 13 0 15 0;
#X connect 14 0 2 0;
#X connect 15 0 14 0;
#X connect 17 0 39 0;
#X connect 18 0 39 0;
#X connect 32 0 34 0;
#X connect 33 0 34 0;
#X connect 33 0 36 0;
#X connect 34 0 22 0;
#X connect 34 1 24 0;
#X connect 34 2 23 0;
#X connect 34 3 25 0;
#X connect 34 4 26 0;
#X connect 34 5 27 0;
#X connect 34 6 28 0;
#X connect 34 7 29 0;
#X connect 34 8 30 0;
#X connect 34 9 31 0;
#X connect 35 0 33 0;
#X connect 37 0 3 0;
#X connect 38 0 2 0;
#X restore 10 57 pd int3;
#N canvas 1039 627 1659 677 int2 0;
#X text 105 44 picks a random interval to check;
#X text 537 29 store which interval was chosen;
#X floatatom 467 53 5 0 0 0 - - -;
#X floatatom 403 53 5 0 0 0 - - -;
#X text 241 29 which answer was given;
#X obj 403 75 ==;
#X text 438 75 check if answer was correct;
#X obj 403 99 tgl 20 0 empty empty empty 17 7 0 10 -262144 -1 -1 0
1;
#X obj 435 154 bng 15 250 50 0 empty empty empty 17 7 0 10 -262144
-1 -1;
#X obj 403 154 bng 15 250 50 0 empty empty empty 17 7 0 10 -262144
-1 -1;
#X obj 403 125 sel 1;
#X text 348 152 correct;
#X text 454 152 incorrect;
#X obj 270 130 bng 15 250 50 0 empty empty empty 17 7 0 10 -262144
-1 -1;
#X msg 270 174 -1;
#X obj 270 150 delay 1;
#X text 169 128 reset checker;
#X obj 308 174 symbol Correct!;
#X obj 435 197 symbol Incorrect!;
#X text 491 222 Send feedback of the result to the UI;
#X obj 351 221 s scoreUp;
#X text 198 221 Increase score by one;
#X obj 450 174 float;
#X obj 34 43 random 5;
#X obj 34 90 sel 0 1 2 3 4;
#X obj 34 19 r int2S;
#X obj 41 67 s int2int;
#N canvas 814 489 1209 715 int2A 0;
#X obj 6 98 outlet;
#X msg 6 29 0;
#X msg 75 29 1;
#X msg 144 29 2;
#X msg 6 74 3;
#X msg 75 74 4;
#X obj 6 6 r int2a0;
#X obj 75 6 r int2a1;
#X obj 144 6 r int2a2;
#X obj 6 51 r int2a3;
#X obj 75 51 r int2a4;
#X connect 1 0 0 0;
#X connect 2 0 0 0;
#X connect 3 0 0 0;
#X connect 4 0 0 0;
#X connect 5 0 0 0;
#X connect 6 0 1 0;
#X connect 7 0 2 0;
#X connect 8 0 3 0;
#X connect 9 0 4 0;
#X connect 10 0 5 0;
#X restore 403 30 pd int2A;
#X obj 467 30 r int2int;
#X obj 435 221 s int2R;
#N canvas 675 470 412 505 minor-second 0;
#X obj 10 6 inlet;
#X obj 10 102 makenote;
#X obj 29 145 noteout;
#X msg 75 59 100;
#X msg 75 102 1;
#X obj 42 32 delay 500;
#X msg 10 59 60;
#X msg 42 59 61;
#X connect 0 0 3 0;
#X connect 0 0 4 0;
#X connect 0 0 5 0;
#X connect 0 0 6 0;
#X connect 1 0 2 0;
#X connect 1 1 2 1;
#X connect 3 0 1 1;
#X connect 3 0 1 2;
#X connect 4 0 2 2;
#X connect 5 0 7 0;
#X connect 6 0 1 0;
#X connect 7 0 1 0;
#X restore 34 113 pd minor-second;
#N canvas 0 50 450 300 minor-third 0;
#X obj 37 37 inlet;
#X obj 37 133 makenote;
#X obj 37 179 noteout;
#X msg 102 90 100;
#X msg 102 133 1;
#X obj 69 63 delay 500;
#X msg 37 90 60;
#X msg 69 90 63;
#X connect 0 0 3 0;
#X connect 0 0 4 0;
#X connect 0 0 5 0;
#X connect 0 0 6 0;
#X connect 1 0 2 0;
#X connect 1 1 2 1;
#X connect 3 0 1 1;
#X connect 3 0 1 2;
#X connect 4 0 2 2;
#X connect 5 0 7 0;
#X connect 6 0 1 0;
#X connect 7 0 1 0;
#X restore 52 132 pd minor-third;
#N canvas 347 254 450 300 perfect-fourth 0;
#X obj 37 37 inlet;
#X obj 37 133 makenote;
#X obj 37 179 noteout;
#X msg 102 90 100;
#X msg 102 133 1;
#X obj 69 63 delay 500;
#X msg 37 90 60;
#X msg 69 90 65;
#X connect 0 0 3 0;
#X connect 0 0 4 0;
#X connect 0 0 5 0;
#X connect 0 0 6 0;
#X connect 1 0 2 0;
#X connect 1 1 2 1;
#X connect 3 0 1 1;
#X connect 3 0 1 2;
#X connect 4 0 2 2;
#X connect 5 0 7 0;
#X connect 6 0 1 0;
#X connect 7 0 1 0;
#X restore 69 151 pd perfect-fourth;
#N canvas 435 245 450 300 major-sixth 0;
#X obj 37 37 inlet;
#X obj 37 133 makenote;
#X obj 37 179 noteout;
#X msg 102 90 100;
#X msg 102 133 1;
#X obj 69 63 delay 500;
#X msg 37 90 60;
#X msg 69 90 69;
#X connect 0 0 3 0;
#X connect 0 0 4 0;
#X connect 0 0 5 0;
#X connect 0 0 6 0;
#X connect 1 0 2 0;
#X connect 1 1 2 1;
#X connect 3 0 1 1;
#X connect 3 0 1 2;
#X connect 4 0 2 2;
#X connect 5 0 7 0;
#X connect 6 0 1 0;
#X connect 7 0 1 0;
#X restore 87 170 pd major-sixth;
#N canvas 328 223 450 300 major-seventh 0;
#X obj 37 37 inlet;
#X obj 37 133 makenote;
#X obj 37 179 noteout;
#X msg 102 90 100;
#X msg 102 133 1;
#X obj 69 63 delay 500;
#X msg 37 90 60;
#X msg 69 90 71;
#X connect 0 0 3 0;
#X connect 0 0 4 0;
#X connect 0 0 5 0;
#X connect 0 0 6 0;
#X connect 1 0 2 0;
#X connect 1 1 2 1;
#X connect 3 0 1 1;
#X connect 3 0 1 2;
#X connect 4 0 2 2;
#X connect 5 0 7 0;
#X connect 6 0 1 0;
#X connect 7 0 1 0;
#X restore 104 189 pd major-seventh;
#X connect 2 0 5 1;
#X connect 2 0 22 1;
#X connect 3 0 5 0;
#X connect 5 0 7 0;
#X connect 7 0 10 0;
#X connect 8 0 18 0;
#X connect 8 0 22 0;
#X connect 9 0 13 0;
#X connect 9 0 17 0;
#X connect 9 0 20 0;
#X connect 10 0 9 0;
#X connect 10 1 8 0;
#X connect 13 0 15 0;
#X connect 14 0 2 0;
#X connect 15 0 14 0;
#X connect 17 0 29 0;
#X connect 18 0 29 0;
#X connect 22 0 24 0;
#X connect 23 0 24 0;
#X connect 23 0 26 0;
#X connect 24 0 30 0;
#X connect 24 1 31 0;
#X connect 24 2 32 0;
#X connect 24 3 33 0;
#X connect 24 4 34 0;
#X connect 25 0 23 0;
#X connect 27 0 3 0;
#X connect 28 0 2 0;
#X restore 10 81 pd int2;
#N canvas 283 218 1005 496 int1 0;
#X text 105 44 picks a random interval to check;
#X text 537 29 store which interval was chosen;
#X floatatom 467 53 5 0 0 0 - - -;
#X floatatom 403 53 5 0 0 0 - - -;
#X text 241 29 which answer was given;
#X obj 403 75 ==;
#X text 438 75 check if answer was correct;
#X obj 403 99 tgl 20 0 empty empty empty 17 7 0 10 -262144 -1 -1 0
1;
#X obj 435 154 bng 15 250 50 0 empty empty empty 17 7 0 10 -262144
-1 -1;
#X obj 403 154 bng 15 250 50 0 empty empty empty 17 7 0 10 -262144
-1 -1;
#X obj 403 125 sel 1;
#X text 348 152 correct;
#X text 454 152 incorrect;
#X obj 270 130 bng 15 250 50 0 empty empty empty 17 7 0 10 -262144
-1 -1;
#X msg 270 174 -1;
#X obj 270 150 delay 1;
#X text 169 128 reset checker;
#X obj 308 174 symbol Correct!;
#X obj 435 197 symbol Incorrect!;
#X text 491 222 Send feedback of the result to the UI;
#X obj 351 221 s scoreUp;
#X text 198 221 Increase score by one;
#N canvas 264 251 1176 572 unison 0;
#X obj 37 37 inlet;
#X obj 37 133 makenote;
#X obj 37 179 noteout;
#X msg 102 133 1;
#X obj 69 63 delay 500;
#X msg 37 90 60;
#X msg 69 90 60;
#X msg 102 90 100;
#X connect 0 0 7 0;
#X connect 0 0 3 0;
#X connect 0 0 4 0;
#X connect 0 0 5 0;
#X connect 1 0 2 0;
#X connect 1 1 2 1;
#X connect 3 0 2 2;
#X connect 4 0 6 0;
#X connect 5 0 1 0;
#X connect 6 0 1 0;
#X connect 7 0 1 1;
#X connect 7 0 1 2;
#X restore 34 113 pd unison;
#N canvas 722 438 450 300 major-second 0;
#X obj 37 37 inlet;
#X obj 37 133 makenote;
#X obj 37 179 noteout;
#X msg 102 133 1;
#X obj 69 63 delay 500;
#X msg 37 90 60;
#X msg 69 90 62;
#X msg 102 90 100;
#X connect 0 0 7 0;
#X connect 0 0 3 0;
#X connect 0 0 4 0;
#X connect 0 0 5 0;
#X connect 1 0 2 0;
#X connect 1 1 2 1;
#X connect 3 0 2 2;
#X connect 4 0 6 0;
#X connect 5 0 1 0;
#X connect 6 0 1 0;
#X connect 7 0 1 1;
#X connect 7 0 1 2;
#X restore 52 132 pd major-second;
#N canvas 390 290 450 300 major-third 0;
#X obj 37 37 inlet;
#X obj 37 133 makenote;
#X obj 37 179 noteout;
#X msg 102 133 1;
#X obj 69 63 delay 500;
#X msg 37 90 60;
#X msg 69 90 64;
#X msg 102 90 100;
#X connect 0 0 7 0;
#X connect 0 0 3 0;
#X connect 0 0 4 0;
#X connect 0 0 5 0;
#X connect 1 0 2 0;
#X connect 1 1 2 1;
#X connect 3 0 2 2;
#X connect 4 0 6 0;
#X connect 5 0 1 0;
#X connect 6 0 1 0;
#X connect 7 0 1 1;
#X connect 7 0 1 2;
#X restore 69 151 pd major-third;
#N canvas 476 287 450 300 perfect-fifth 0;
#X obj 37 37 inlet;
#X obj 37 133 makenote;
#X obj 37 179 noteout;
#X msg 102 133 1;
#X obj 69 63 delay 500;
#X msg 37 90 60;
#X msg 69 90 67;
#X msg 102 90 100;
#X connect 0 0 7 0;
#X connect 0 0 3 0;
#X connect 0 0 4 0;
#X connect 0 0 5 0;
#X connect 1 0 2 0;
#X connect 1 1 2 1;
#X connect 3 0 2 2;
#X connect 4 0 6 0;
#X connect 5 0 1 0;
#X connect 6 0 1 0;
#X connect 7 0 1 1;
#X connect 7 0 1 2;
#X restore 87 170 pd perfect-fifth;
#N canvas 452 311 450 300 octave 0;
#X obj 37 37 inlet;
#X obj 37 133 makenote;
#X obj 37 179 noteout;
#X msg 102 133 1;
#X obj 69 63 delay 500;
#X msg 37 90 60;
#X msg 69 90 72;
#X msg 102 90 100;
#X connect 0 0 7 0;
#X connect 0 0 3 0;
#X connect 0 0 4 0;
#X connect 0 0 5 0;
#X connect 1 0 2 0;
#X connect 1 1 2 1;
#X connect 3 0 2 2;
#X connect 4 0 6 0;
#X connect 5 0 1 0;
#X connect 6 0 1 0;
#X connect 7 0 1 1;
#X connect 7 0 1 2;
#X restore 104 189 pd octave;
#X obj 450 174 float;
#X obj 34 43 random 5;
#X obj 34 90 sel 0 1 2 3 4;
#X obj 34 19 r int1S;
#X obj 41 67 s int1int;
#N canvas 446 324 1209 715 int1A 0;
#X obj 6 98 outlet;
#X msg 6 29 0;
#X msg 75 29 1;
#X msg 144 29 2;
#X msg 6 74 3;
#X msg 75 74 4;
#X obj 6 6 r int1a0;
#X obj 75 6 r int1a1;
#X obj 144 6 r int1a2;
#X obj 6 51 r int1a3;
#X obj 75 51 r int1a4;
#X connect 1 0 0 0;
#X connect 2 0 0 0;
#X connect 3 0 0 0;
#X connect 4 0 0 0;
#X connect 5 0 0 0;
#X connect 6 0 1 0;
#X connect 7 0 2 0;
#X connect 8 0 3 0;
#X connect 9 0 4 0;
#X connect 10 0 5 0;
#X restore 403 30 pd int1A;
#X obj 467 30 r int1int;
#X obj 435 221 s int1R;
#X connect 2 0 5 1;
#X connect 2 0 27 1;
#X connect 3 0 5 0;
#X connect 5 0 7 0;
#X connect 7 0 10 0;
#X connect 8 0 18 0;
#X connect 8 0 27 0;
#X connect 9 0 13 0;
#X connect 9 0 17 0;
#X connect 9 0 20 0;
#X connect 10 0 9 0;
#X connect 10 1 8 0;
#X connect 13 0 15 0;
#X connect 14 0 2 0;
#X connect 15 0 14 0;
#X connect 17 0 34 0;
#X connect 18 0 34 0;
#X connect 27 0 29 0;
#X connect 28 0 29 0;
#X connect 28 0 31 0;
#X connect 29 0 22 0;
#X connect 29 1 23 0;
#X connect 29 2 24 0;
#X connect 29 3 25 0;
#X connect 29 4 26 0;
#X connect 30 0 28 0;
#X connect 32 0 3 0;
#X connect 33 0 2 0;
#X restore 10 105 pd int1;
#X restore 205 64 pd int;
#N canvas 67 108 1047 567 chords 0;
#X obj 146 37 random 13;
#X obj 27 22 bng 15 250 50 0 empty chordS empty 17 7 0 10 -262144 -1
-1;
#X floatatom 146 61 5 0 0 0 - - chordRandom;
#X obj 27 46 random 13;
#X obj 27 110 select 0 1 2 3 4 5 6 7 8 9 10 11 12;
#N canvas 49 83 450 300 major 0;
#X obj 36 39 inlet;
#X msg 36 81 60;
#X msg 116 81 67;
#X obj 36 125 +;
#X obj 76 125 +;
#X obj 116 125 +;
#X floatatom 155 81 5 0 0 0 - chordRandom -;
#X text 196 80 chordRandom;
#X floatatom 36 149 5 0 0 0 - - -;
#X floatatom 76 149 5 0 0 0 - - -;
#X floatatom 116 149 5 0 0 0 - - -;
#X obj 68 212 makenote;
#X obj 68 258 noteout;
#X msg 133 212 1;
#X msg 157 182 500;
#X msg 76 81 64;
#X connect 0 0 13 0;
#X connect 0 0 14 0;
#X connect 0 0 1 0;
#X connect 0 0 15 0;
#X connect 0 0 2 0;
#X connect 1 0 3 0;
#X connect 2 0 5 0;
#X connect 3 0 8 0;
#X connect 4 0 9 0;
#X connect 5 0 10 0;
#X connect 6 0 5 1;
#X connect 6 0 4 1;
#X connect 6 0 3 1;
#X connect 8 0 11 0;
#X connect 9 0 11 0;
#X connect 10 0 11 0;
#X connect 11 0 12 0;
#X connect 11 1 12 1;
#X connect 13 0 12 2;
#X connect 14 0 11 1;
#X connect 14 0 11 2;
#X connect 15 0 4 0;
#X restore 27 134 pd major;
#N canvas 49 83 450 300 minor 0;
#X obj 37 39 inlet;
#X msg 37 81 60;
#X msg 117 81 67;
#X obj 37 125 +;
#X obj 77 125 +;
#X obj 117 125 +;
#X floatatom 156 81 5 0 0 0 - chordRandom -;
#X text 197 80 chordRandom;
#X floatatom 37 149 5 0 0 0 - - -;
#X floatatom 77 149 5 0 0 0 - - -;
#X floatatom 117 149 5 0 0 0 - - -;
#X obj 69 212 makenote;
#X obj 69 258 noteout;
#X msg 134 212 1;
#X msg 77 81 63;
#X msg 158 182 500;
#X connect 0 0 13 0;
#X connect 0 0 15 0;
#X connect 0 0 1 0;
#X connect 0 0 14 0;
#X connect 0 0 2 0;
#X connect 1 0 3 0;
#X connect 2 0 5 0;
#X connect 3 0 8 0;
#X connect 4 0 9 0;
#X connect 5 0 10 0;
#X connect 6 0 5 1;
#X connect 6 0 4 1;
#X connect 6 0 3 1;
#X connect 8 0 11 0;
#X connect 9 0 11 0;
#X connect 10 0 11 0;
#X connect 11 0 12 0;
#X connect 11 1 12 1;
#X connect 13 0 12 2;
#X connect 14 0 4 0;
#X connect 15 0 11 1;
#X connect 15 0 11 2;
#X restore 45 153 pd minor;
#N canvas 49 83 450 300 sus2 0;
#X obj 37 39 inlet;
#X msg 37 81 60;
#X msg 117 81 67;
#X obj 37 125 +;
#X obj 77 125 +;
#X obj 117 125 +;
#X floatatom 156 81 5 0 0 0 - chordRandom -;
#X text 197 80 chordRandom;
#X floatatom 37 149 5 0 0 0 - - -;
#X floatatom 77 149 5 0 0 0 - - -;
#X floatatom 117 149 5 0 0 0 - - -;
#X obj 69 212 makenote;
#X obj 69 258 noteout;
#X msg 134 212 1;
#X msg 158 182 500;
#X msg 77 81 62;
#X connect 0 0 13 0;
#X connect 0 0 14 0;
#X connect 0 0 1 0;
#X connect 0 0 15 0;
#X connect 0 0 2 0;
#X connect 1 0 3 0;
#X connect 2 0 5 0;
#X connect 3 0 8 0;
#X connect 4 0 9 0;
#X connect 5 0 10 0;
#X connect 6 0 5 1;
#X connect 6 0 4 1;
#X connect 6 0 3 1;
#X connect 8 0 11 0;
#X connect 9 0 11 0;
#X connect 10 0 11 0;
#X connect 11 0 12 0;
#X connect 11 1 12 1;
#X connect 13 0 12 2;
#X connect 14 0 11 1;
#X connect 14 0 11 2;
#X connect 15 0 4 0;
#X restore 64 172 pd sus2;
#N canvas 49 83 450 300 sus4 0;
#X obj 37 39 inlet;
#X msg 37 81 60;
#X msg 117 81 67;
#X obj 37 125 +;
#X obj 77 125 +;
#X obj 117 125 +;
#X floatatom 156 81 5 0 0 0 - chordRandom -;
#X text 197 80 chordRandom;
#X floatatom 37 149 5 0 0 0 - - -;
#X floatatom 77 149 5 0 0 0 - - -;
#X floatatom 117 149 5 0 0 0 - - -;
#X obj 69 212 makenote;
#X obj 69 258 noteout;
#X msg 134 212 1;
#X msg 158 182 500;
#X msg 77 81 65;
#X connect 0 0 13 0;
#X connect 0 0 14 0;
#X connect 0 0 1 0;
#X connect 0 0 15 0;
#X connect 0 0 2 0;
#X connect 1 0 3 0;
#X connect 2 0 5 0;
#X connect 3 0 8 0;
#X connect 4 0 9 0;
#X connect 5 0 10 0;
#X connect 6 0 5 1;
#X connect 6 0 4 1;
#X connect 6 0 3 1;
#X connect 8 0 11 0;
#X connect 9 0 11 0;
#X connect 10 0 11 0;
#X connect 11 0 12 0;
#X connect 11 1 12 1;
#X connect 13 0 12 2;
#X connect 14 0 11 1;
#X connect 14 0 11 2;
#X connect 15 0 4 0;
#X restore 82 191 pd sus4;
#N canvas 49 83 450 300 aug 0;
#X obj 37 39 inlet;
#X msg 37 81 60;
#X obj 37 125 +;
#X obj 77 125 +;
#X obj 117 125 +;
#X floatatom 156 81 5 0 0 0 - chordRandom -;
#X text 197 80 chordRandom;
#X floatatom 37 149 5 0 0 0 - - -;
#X floatatom 77 149 5 0 0 0 - - -;
#X floatatom 117 149 5 0 0 0 - - -;
#X obj 69 212 makenote;
#X obj 69 258 noteout;
#X msg 134 212 1;
#X msg 158 182 500;
#X msg 77 81 64;
#X msg 117 81 68;
#X connect 0 0 12 0;
#X connect 0 0 13 0;
#X connect 0 0 1 0;
#X connect 0 0 14 0;
#X connect 0 0 15 0;
#X connect 1 0 2 0;
#X connect 2 0 7 0;
#X connect 3 0 8 0;
#X connect 4 0 9 0;
#X connect 5 0 4 1;
#X connect 5 0 3 1;
#X connect 5 0 2 1;
#X connect 7 0 10 0;
#X connect 8 0 10 0;
#X connect 9 0 10 0;
#X connect 10 0 11 0;
#X connect 10 1 11 1;
#X connect 12 0 11 2;
#X connect 13 0 10 1;
#X connect 13 0 10 2;
#X connect 14 0 3 0;
#X connect 15 0 4 0;
#X restore 101 210 pd aug;
#N canvas 49 83 450 300 dim 0;
#X obj 37 39 inlet;
#X msg 37 81 60;
#X obj 37 125 +;
#X obj 77 125 +;
#X obj 117 125 +;
#X floatatom 156 81 5 0 0 0 - chordRandom -;
#X text 197 80 chordRandom;
#X floatatom 37 149 5 0 0 0 - - -;
#X floatatom 77 149 5 0 0 0 - - -;
#X floatatom 117 149 5 0 0 0 - - -;
#X obj 69 212 makenote;
#X obj 69 258 noteout;
#X msg 134 212 1;
#X msg 158 182 500;
#X msg 77 81 64;
#X msg 117 81 66;
#X connect 0 0 12 0;
#X connect 0 0 13 0;
#X connect 0 0 1 0;
#X connect 0 0 14 0;
#X connect 0 0 15 0;
#X connect 1 0 2 0;
#X connect 2 0 7 0;
#X connect 3 0 8 0;
#X connect 4 0 9 0;
#X connect 5 0 4 1;
#X connect 5 0 3 1;
#X connect 5 0 2 1;
#X connect 7 0 10 0;
#X connect 8 0 10 0;
#X connect 9 0 10 0;
#X connect 10 0 11 0;
#X connect 10 1 11 1;
#X connect 12 0 11 2;
#X connect 13 0 10 1;
#X connect 13 0 10 2;
#X connect 14 0 3 0;
#X connect 15 0 4 0;
#X restore 120 229 pd dim;
#N canvas 49 83 450 300 inv1 0;
#X obj 37 39 inlet;
#X msg 37 81 60;
#X obj 37 125 +;
#X obj 77 125 +;
#X obj 117 125 +;
#X floatatom 156 81 5 0 0 0 - chordRandom -;
#X text 197 80 chordRandom;
#X floatatom 37 149 5 0 0 0 - - -;
#X floatatom 77 149 5 0 0 0 - - -;
#X floatatom 117 149 5 0 0 0 - - -;
#X obj 69 212 makenote;
#X obj 69 258 noteout;
#X msg 134 212 1;
#X msg 158 182 500;
#X msg 77 81 64;
#X msg 117 81 55;
#X connect 0 0 12 0;
#X connect 0 0 13 0;
#X connect 0 0 1 0;
#X connect 0 0 14 0;
#X connect 0 0 15 0;
#X connect 1 0 2 0;
#X connect 2 0 7 0;
#X connect 3 0 8 0;
#X connect 4 0 9 0;
#X connect 5 0 4 1;
#X connect 5 0 3 1;
#X connect 5 0 2 1;
#X connect 7 0 10 0;
#X connect 8 0 10 0;
#X connect 9 0 10 0;
#X connect 10 0 11 0;
#X connect 10 1 11 1;
#X connect 12 0 11 2;
#X connect 13 0 10 1;
#X connect 13 0 10 2;
#X connect 14 0 3 0;
#X connect 15 0 4 0;
#X restore 138 248 pd inv1;
#N canvas 730 188 450 300 inv2 0;
#X obj 37 39 inlet;
#X msg 37 81 60;
#X obj 37 125 +;
#X obj 77 125 +;
#X obj 117 125 +;
#X floatatom 156 81 5 0 0 0 - chordRandom -;
#X text 197 80 chordRandom;
#X floatatom 37 149 5 0 0 0 - - -;
#X floatatom 77 149 5 0 0 0 - - -;
#X floatatom 117 149 5 0 0 0 - - -;
#X obj 69 212 makenote;
#X obj 69 258 noteout;
#X msg 134 212 1;
#X msg 158 182 500;
#X msg 117 81 55;
#X msg 77 81 52;
#X connect 0 0 12 0;
#X connect 0 0 13 0;
#X connect 0 0 1 0;
#X connect 0 0 15 0;
#X connect 0 0 14 0;
#X connect 1 0 2 0;
#X connect 2 0 7 0;
#X connect 3 0 8 0;
#X connect 4 0 9 0;
#X connect 5 0 4 1;
#X connect 5 0 3 1;
#X connect 5 0 2 1;
#X connect 7 0 10 0;
#X connect 8 0 10 0;
#X connect 9 0 10 0;
#X connect 10 0 11 0;
#X connect 10 1 11 1;
#X connect 12 0 11 2;
#X connect 13 0 10 1;
#X connect 13 0 10 2;
#X connect 14 0 4 0;
#X connect 15 0 3 0;
#X restore 157 267 pd inv2;
#N canvas 373 222 450 300 add6 0;
#X obj 37 39 inlet;
#X msg 37 81 60;
#X obj 37 125 +;
#X obj 77 125 +;
#X obj 117 125 +;
#X floatatom 226 81 5 0 0 0 - chordRandom -;
#X text 267 80 chordRandom;
#X floatatom 37 149 5 0 0 0 - - -;
#X floatatom 77 149 5 0 0 0 - - -;
#X floatatom 117 149 5 0 0 0 - - -;
#X obj 69 212 makenote;
#X obj 69 258 noteout;
#X msg 134 212 1;
#X msg 158 182 500;
#X obj 157 125 +;
#X floatatom 157 149 5 0 0 0 - - -;
#X msg 77 81 64;
#X msg 117 81 67;
#X msg 157 81 69;
#X connect 0 0 12 0;
#X connect 0 0 13 0;
#X connect 0 0 1 0;
#X connect 0 0 16 0;
#X connect 0 0 17 0;
#X connect 0 0 18 0;
#X connect 1 0 2 0;
#X connect 2 0 7 0;
#X connect 3 0 8 0;
#X connect 4 0 9 0;
#X connect 5 0 4 1;
#X connect 5 0 3 1;
#X connect 5 0 2 1;
#X connect 5 0 14 1;
#X connect 7 0 10 0;
#X connect 8 0 10 0;
#X connect 9 0 10 0;
#X connect 10 0 11 0;
#X connect 10 1 11 1;
#X connect 12 0 11 2;
#X connect 13 0 10 1;
#X connect 13 0 10 2;
#X connect 14 0 15 0;
#X connect 15 0 10 0;
#X connect 16 0 3 0;
#X connect 17 0 4 0;
#X connect 18 0 14 0;
#X restore 175 286 pd add6;
#N canvas 93 242 450 300 m7 0;
#X obj 37 39 inlet;
#X msg 37 81 60;
#X obj 37 125 +;
#X obj 77 125 +;
#X obj 117 125 +;
#X floatatom 226 81 5 0 0 0 - chordRandom -;
#X text 267 80 chordRandom;
#X floatatom 37 149 5 0 0 0 - - -;
#X floatatom 77 149 5 0 0 0 - - -;
#X floatatom 117 149 5 0 0 0 - - -;
#X obj 69 212 makenote;
#X obj 69 258 noteout;
#X msg 134 212 1;
#X msg 158 182 500;
#X obj 157 125 +;
#X floatatom 157 149 5 0 0 0 - - -;
#X msg 117 81 67;
#X msg 157 81 70;
#X msg 77 81 63;
#X connect 0 0 12 0;
#X connect 0 0 13 0;
#X connect 0 0 1 0;
#X connect 0 0 18 0;
#X connect 0 0 16 0;
#X connect 0 0 17 0;
#X connect 1 0 2 0;
#X connect 2 0 7 0;
#X connect 3 0 8 0;
#X connect 4 0 9 0;
#X connect 5 0 4 1;
#X connect 5 0 3 1;
#X connect 5 0 2 1;
#X connect 5 0 14 1;
#X connect 7 0 10 0;
#X connect 8 0 10 0;
#X connect 9 0 10 0;
#X connect 10 0 11 0;
#X connect 10 1 11 1;
#X connect 12 0 11 2;
#X connect 13 0 10 1;
#X connect 13 0 10 2;
#X connect 14 0 15 0;
#X connect 15 0 10 0;
#X connect 16 0 4 0;
#X connect 17 0 14 0;
#X connect 18 0 3 0;
#X restore 194 305 pd m7;
#N canvas 49 232 450 300 add7 0;
#X obj 37 39 inlet;
#X msg 37 81 60;
#X obj 37 125 +;
#X obj 77 125 +;
#X obj 117 125 +;
#X floatatom 226 81 5 0 0 0 - chordRandom -;
#X text 267 80 chordRandom;
#X floatatom 37 149 5 0 0 0 - - -;
#X floatatom 77 149 5 0 0 0 - - -;
#X floatatom 117 149 5 0 0 0 - - -;
#X obj 69 212 makenote;
#X obj 69 258 noteout;
#X msg 134 212 1;
#X msg 158 182 500;
#X obj 157 125 +;
#X floatatom 157 149 5 0 0 0 - - -;
#X msg 117 81 67;
#X msg 77 81 64;
#X msg 157 81 70;
#X connect 0 0 12 0;
#X connect 0 0 13 0;
#X connect 0 0 1 0;
#X connect 0 0 17 0;
#X connect 0 0 16 0;
#X connect 0 0 18 0;
#X connect 1 0 2 0;
#X connect 2 0 7 0;
#X connect 3 0 8 0;
#X connect 4 0 9 0;
#X connect 5 0 4 1;
#X connect 5 0 3 1;
#X connect 5 0 2 1;
#X connect 5 0 14 1;
#X connect 7 0 10 0;
#X connect 8 0 10 0;
#X connect 9 0 10 0;
#X connect 10 0 11 0;
#X connect 10 1 11 1;
#X connect 12 0 11 2;
#X connect 13 0 10 1;
#X connect 13 0 10 2;
#X connect 14 0 15 0;
#X connect 15 0 10 0;
#X connect 16 0 4 0;
#X connect 17 0 3 0;
#X connect 18 0 14 0;
#X restore 213 324 pd add7;
#N canvas 93 242 450 300 maj7 0;
#X obj 37 39 inlet;
#X msg 37 81 60;
#X obj 37 125 +;
#X obj 77 125 +;
#X obj 117 125 +;
#X floatatom 226 81 5 0 0 0 - chordRandom -;
#X text 267 80 chordRandom;
#X floatatom 37 149 5 0 0 0 - - -;
#X floatatom 77 149 5 0 0 0 - - -;
#X floatatom 117 149 5 0 0 0 - - -;
#X obj 69 212 makenote;
#X obj 69 258 noteout;
#X msg 134 212 1;
#X msg 158 182 500;
#X obj 157 125 +;
#X floatatom 157 149 5 0 0 0 - - -;
#X msg 117 81 67;
#X msg 77 81 64;
#X msg 157 81 71;
#X connect 0 0 12 0;
#X connect 0 0 13 0;
#X connect 0 0 1 0;
#X connect 0 0 17 0;
#X connect 0 0 16 0;
#X connect 0 0 18 0;
#X connect 1 0 2 0;
#X connect 2 0 7 0;
#X connect 3 0 8 0;
#X connect 4 0 9 0;
#X connect 5 0 4 1;
#X connect 5 0 3 1;
#X connect 5 0 2 1;
#X connect 5 0 14 1;
#X connect 7 0 10 0;
#X connect 8 0 10 0;
#X connect 9 0 10 0;
#X connect 10 0 11 0;
#X connect 10 1 11 1;
#X connect 12 0 11 2;
#X connect 13 0 10 1;
#X connect 13 0 10 2;
#X connect 14 0 15 0;
#X connect 15 0 10 0;
#X connect 16 0 4 0;
#X connect 17 0 3 0;
#X connect 18 0 14 0;
#X restore 231 343 pd maj7;
#N canvas 0 22 450 300 add9 0;
#X obj 37 39 inlet;
#X msg 37 81 60;
#X obj 37 125 +;
#X obj 77 125 +;
#X obj 117 125 +;
#X floatatom 226 81 5 0 0 0 - chordRandom -;
#X text 267 80 chordRandom;
#X floatatom 37 149 5 0 0 0 - - -;
#X floatatom 77 149 5 0 0 0 - - -;
#X floatatom 117 149 5 0 0 0 - - -;
#X obj 69 212 makenote;
#X obj 69 258 noteout;
#X msg 134 212 1;
#X msg 158 182 500;
#X obj 157 125 +;
#X floatatom 157 149 5 0 0 0 - - -;
#X msg 117 81 67;
#X msg 77 81 64;
#X msg 157 81 74;
#X connect 0 0 12 0;
#X connect 0 0 13 0;
#X connect 0 0 1 0;
#X connect 0 0 17 0;
#X connect 0 0 16 0;
#X connect 0 0 18 0;
#X connect 1 0 2 0;
#X connect 2 0 7 0;
#X connect 3 0 8 0;
#X connect 4 0 9 0;
#X connect 5 0 4 1;
#X connect 5 0 3 1;
#X connect 5 0 2 1;
#X connect 5 0 14 1;
#X connect 7 0 10 0;
#X connect 8 0 10 0;
#X connect 9 0 10 0;
#X connect 10 0 11 0;
#X connect 10 1 11 1;
#X connect 12 0 11 2;
#X connect 13 0 10 1;
#X connect 13 0 10 2;
#X connect 14 0 15 0;
#X connect 15 0 10 0;
#X connect 16 0 4 0;
#X connect 17 0 3 0;
#X connect 18 0 14 0;
#X restore 250 362 pd add9;
#X text 721 85 store which interval was chosen;
#X floatatom 631 109 5 0 0 0 - - -;
#X floatatom 557 109 5 0 0 0 - - -;
#X text 395 85 which answer was given;
#X obj 557 131 ==;
#X text 592 131 check if answer was correct;
#X obj 557 155 tgl 20 0 empty empty empty 17 7 0 10 -262144 -1 -1 0
1;
#X obj 589 210 bng 15 250 50 0 empty empty empty 17 7 0 10 -262144
-1 -1;
#X obj 557 210 bng 15 250 50 0 empty empty empty 17 7 0 10 -262144
-1 -1;
#X obj 557 181 sel 1;
#X text 502 208 correct;
#X text 608 208 incorrect;
#X obj 424 186 bng 15 250 50 0 empty empty empty 17 7 0 10 -262144
-1 -1;
#X msg 424 230 -1;
#X obj 424 206 delay 1;
#X text 323 184 reset checker;
#X obj 589 277 s int5R;
#X obj 462 230 symbol Correct!;
#X obj 589 253 symbol Incorrect!;
#X text 645 278 Send feedback of the result to the UI;
#X obj 505 277 s scoreUp;
#X text 352 277 Increase score by one;
#X obj 604 230 float;
#N canvas 282 250 574 404 chordA 0;
#X obj 6 234 outlet;
#X msg 6 29 0;
#X msg 85 29 1;
#X msg 164 29 2;
#X msg 6 74 3;
#X msg 85 74 4;
#X msg 164 74 5;
#X msg 6 120 6;
#X msg 85 120 7;
#X msg 164 120 8;
#X msg 6 166 9;
#X msg 85 166 10;
#X msg 164 166 11;
#X msg 6 211 12;
#X obj 6 6 r chorda0;
#X obj 85 6 r chorda1;
#X obj 164 6 r chorda2;
#X obj 6 51 r chorda3;
#X obj 85 51 r chorda4;
#X obj 164 51 r chorda5;
#X obj 6 97 r chorda6;
#X obj 85 97 r chorda7;
#X obj 164 97 r chorda8;
#X obj 6 143 r chorda9;
#X obj 85 143 r chorda10;
#X obj 164 143 r chorda11;
#X obj 6 188 r chorda12;
#X connect 1 0 0 0;
#X connect 2 0 0 0;
#X connect 3 0 0 0;
#X connect 4 0 0 0;
#X connect 5 0 0 0;
#X connect 6 0 0 0;
#X connect 7 0 0 0;
#X connect 8 0 0 0;
#X connect 9 0 0 0;
#X connect 10 0 0 0;
#X connect 11 0 0 0;
#X connect 12 0 0 0;
#X connect 13 0 0 0;
#X connect 14 0 1 0;
#X connect 15 0 2 0;
#X connect 16 0 3 0;
#X connect 17 0 4 0;
#X connect 18 0 5 0;
#X connect 19 0 6 0;
#X connect 20 0 7 0;
#X connect 21 0 8 0;
#X connect 22 0 9 0;
#X connect 23 0 10 0;
#X connect 24 0 11 0;
#X connect 25 0 12 0;
#X connect 26 0 13 0;
#X restore 557 86 pd chordA;
#X floatatom 41 79 5 0 0 1 chordStore - chordStore;
#X obj 631 86 r chordStore;
#X connect 0 0 2 0;
#X connect 1 0 0 0;
#X connect 1 0 3 0;
#X connect 3 0 4 0;
#X connect 3 0 42 0;
#X connect 4 0 5 0;
#X connect 4 1 6 0;
#X connect 4 2 7 0;
#X connect 4 3 8 0;
#X connect 4 4 9 0;
#X connect 4 5 10 0;
#X connect 4 6 11 0;
#X connect 4 7 12 0;
#X connect 4 8 13 0;
#X connect 4 9 14 0;
#X connect 4 10 15 0;
#X connect 4 11 16 0;
#X connect 4 12 17 0;
#X connect 19 0 22 1;
#X connect 19 0 40 1;
#X connect 20 0 22 0;
#X connect 22 0 24 0;
#X connect 24 0 27 0;
#X connect 25 0 36 0;
#X connect 25 0 40 0;
#X connect 26 0 30 0;
#X connect 26 0 35 0;
#X connect 26 0 38 0;
#X connect 27 0 26 0;
#X connect 27 1 25 0;
#X connect 30 0 32 0;
#X connect 31 0 19 0;
#X connect 32 0 31 0;
#X connect 35 0 34 0;
#X connect 36 0 34 0;
#X connect 40 0 4 0;
#X connect 41 0 20 0;
#X connect 43 0 19 0;
#X restore 205 87 pd chords;
#N canvas 0 50 450 300 scales 0;
#X obj 17 17;
#X obj 17 40;
#X connect 0 0 1 0;
#X restore 205 110 pd scales;
#N canvas 314 149 1000 551 tempo 0;
#X obj 51 95 tgl 15 0 empty empty empty 17 7 0 10 -262144 -1 -1 0 1
;
#X text 669 45 store which interval was chosen;
#X floatatom 589 69 5 0 0 0 - - -;
#X floatatom 525 69 5 0 0 0 - - -;
#X text 298 44 which answer was given;
#X obj 525 345 tgl 20 0 empty empty empty 17 7 0 10 -262144 -1 -1 0
1;
#X obj 557 400 bng 15 250 50 0 empty empty empty 17 7 0 10 -262144
-1 -1;
#X obj 525 400 bng 15 250 50 0 empty empty empty 17 7 0 10 -262144
-1 -1;
#X obj 525 371 sel 1;
#X text 470 398 correct;
#X text 576 398 incorrect;
#X obj 392 376 bng 15 250 50 0 empty empty empty 17 7 0 10 -262144
-1 -1;
#X msg 392 420 -1;
#X obj 392 396 delay 1;
#X text 291 374 reset checker;
#X obj 430 420 symbol Correct!;
#X obj 557 443 symbol Incorrect!;
#X text 622 468 Send feedback of the result to the UI;
#X obj 473 467 s scoreUp;
#X text 320 467 Increase score by one;
#X obj 572 420 float;
#X msg 92 60 0;
#X obj 51 19 bng 15 250 50 0 empty tempoS empty 17 7 0 10 -262144 -1
-1;
#X msg 51 60 1;
#X obj 92 89 random 120;
#X obj 51 210 metro;
#X obj 51 288 makenote;
#X obj 51 334 noteout;
#X msg 116 245 100;
#X msg 116 288 1;
#X msg 51 245 60;
#X msg 83 245 60;
#X obj 589 46 r temposet;
#X floatatom 557 21 5 0 0 0 - tempoI -;
#X text 599 20 input;
#X obj 525 26 bng 15 250 50 0 empty tempoA empty 17 7 0 10 -262144
-1 -1;
#X text 461 23 confirm;
#X obj 525 46 float;
#X floatatom 92 210 5 0 0 0 - - temposet;
#X msg 146 144 60000;
#X obj 146 172 /;
#X floatatom 146 200 5 0 0 0 - - -;
#X text 177 172 convert bpm to ms;
#X obj 92 115 + 40;
#X obj 557 467 s tempoR;
#X obj 541 95 -;
#X obj 560 149 &&;
#X floatatom 529 305 5 0 0 0 - - -;
#X text 607 150 check if answer was close enough;
#X floatatom 479 123 5 0 0 0 - - -;
#X obj 479 97 * 0.08;
#X obj 464 165 <=;
#X obj 602 124 >=;
#X connect 0 0 25 0;
#X connect 2 0 20 1;
#X connect 2 0 50 0;
#X connect 2 0 45 1;
#X connect 3 0 45 0;
#X connect 5 0 8 0;
#X connect 6 0 16 0;
#X connect 6 0 20 0;
#X connect 7 0 11 0;
#X connect 7 0 15 0;
#X connect 7 0 18 0;
#X connect 8 0 7 0;
#X connect 8 1 6 0;
#X connect 11 0 13 0;
#X connect 12 0 2 0;
#X connect 13 0 12 0;
#X connect 15 0 21 0;
#X connect 15 0 44 0;
#X connect 16 0 44 0;
#X connect 21 0 0 0;
#X connect 22 0 24 0;
#X connect 22 0 23 0;
#X connect 23 0 0 0;
#X connect 24 0 43 0;
#X connect 25 0 30 0;
#X connect 25 0 31 0;
#X connect 25 0 28 0;
#X connect 26 0 27 0;
#X connect 26 1 27 1;
#X connect 28 0 26 1;
#X connect 28 0 26 2;
#X connect 29 0 27 2;
#X connect 30 0 26 0;
#X connect 31 0 26 0;
#X connect 32 0 2 0;
#X connect 33 0 37 1;
#X connect 35 0 37 0;
#X connect 37 0 3 0;
#X connect 39 0 40 0;
#X connect 40 0 41 0;
#X connect 41 0 25 1;
#X connect 43 0 38 0;
#X connect 43 0 40 1;
#X connect 43 0 39 0;
#X connect 45 0 51 0;
#X connect 45 0 52 0;
#X connect 46 0 47 0;
#X connect 47 0 5 0;
#X connect 49 0 51 1;
#X connect 49 0 52 1;
#X connect 50 0 49 0;
#X connect 51 0 46 0;
#X connect 52 0 46 1;
#X coords 0 0 0.5 0.5 0 0 0;
#X restore 205 133 pd tempo;
#X connect 2 0 3 0;
#X coords 0 0 0.5 0.5 170 120 0;
#X restore 111 127 pd backend;
#N canvas 587 47 485 242 Intervals 0;
#N canvas 0 22 450 278 (subpatch) 0;
#X coords 0 1 100 -1 170 80 1 0 0;
#X restore 11 21 graph;
#X text 70 1 Levels;
#X floatatom 187 40 5 0 0 0 - score -;
#X text 185 18 Score;
#N canvas 71 247 1108 558 Level1 0;
#N canvas 163 191 450 278 (subpatch) 0;
#X coords 0 1 100 -1 320 240 1 0 0;
#X restore 111 29 graph;
#X floatatom 442 46 5 0 0 0 - score -;
#X obj 74 29 bng 25 250 50 0 int1S empty empty 17 7 0 10 -114521 -33289
-33289;
#X obj 165 38 bng 15 250 50 0 int1a0 empty empty 17 7 0 10 -262144
-1 -1;
#X obj 262 85 bng 15 250 50 0 int1a2 empty empty 17 7 0 10 -262144
-1 -1;
#X obj 262 226 bng 15 250 50 0 int1a4 empty empty 17 7 0 10 -262144
-1 -1;
#X text 440 24 Score;
#X obj 262 132 bng 15 250 50 0 int1a3 empty empty 17 7 0 10 -262144
-1 -1;
#X obj 359 38 bng 15 250 50 0 int1a1 empty empty 17 7 0 10 -262144
-1 -1;
#X symbolatom 442 84 12 0 0 0 - int1R -;
#X text 439 64 Result;
#X text 150 53 unison;
#X text 326 53 major second;
#X text 231 99 major third;
#X text 227 147 perfect fifth;
#X text 219 240 perfect octave;
#X text 11 54 New interval;
#X text 243 8 Level 1;
#X restore 18 27 pd Level1;
#N canvas 8 321 1108 556 Level3 0;
#N canvas 163 191 450 278 (subpatch) 0;
#X coords 0 1 100 -1 320 240 1 0 0;
#X restore 111 29 graph;
#X floatatom 442 46 5 0 0 0 - score -;
#X obj 74 29 bng 25 250 50 0 int3S empty empty 17 7 0 10 -114521 -33289
-33289;
#X obj 165 38 bng 15 250 50 0 int3a0 empty empty 17 7 0 10 -262144
-1 -1;
#X obj 165 179 bng 15 250 50 0 int3a7 empty empty 17 7 0 10 -262144
-1 -1;
#X obj 262 38 bng 15 250 50 0 int3a1 empty empty 17 7 0 10 -262144
-1 -1;
#X obj 262 85 bng 15 250 50 0 int3a4 empty empty 17 7 0 10 -262144
-1 -1;
#X obj 262 226 bng 15 250 50 0 int3a9 empty empty 17 7 0 10 -262144
-1 -1;
#X text 440 24 Score;
#X obj 165 85 bng 15 250 50 0 int3a3 empty empty 17 7 0 10 -262144
-1 -1;
#X obj 262 132 bng 15 250 50 0 int3a6 empty empty 17 7 0 10 -262144
-1 -1;
#X obj 359 179 bng 15 250 50 0 int3a8 empty empty 17 7 0 10 -262144
-1 -1;
#X obj 359 38 bng 15 250 50 0 int3a2 empty empty 17 7 0 10 -262144
-1 -1;
#X symbolatom 442 84 12 0 0 0 - int3R -;
#X text 439 64 Result;
#X text 150 53 unison;
#X text 326 53 major second;
#X text 228 53 minor second;
#X text 132 99 minor third;
#X text 231 99 major third;
#X text 322 99 perfect fourth;
#X text 227 147 perfect fifth;
#X text 133 193 major sixth;
#X text 326 193 major seventh;
#X text 219 240 perfect octave;
#X obj 359 85 bng 15 250 50 0 int3a5 empty empty 17 7 0 10 -262144
-1 -1;
#X text 11 54 New interval;
#X text 243 8 Level 3;
#X coords 0 0 0.5 0.5 0 0 0;
#X restore 18 51 pd Level3;
#N canvas 331 91 1109 559 Level5 0;
#N canvas 163 191 450 278 (subpatch) 0;
#X coords 0 1 100 -1 320 240 1 0 0;
#X restore 111 29 graph;
#X floatatom 442 46 5 0 0 0 - score -;
#X obj 74 29 bng 25 250 50 0 int5S empty empty 17 7 0 10 -114521 -33289
-33289;
#X obj 165 38 bng 15 250 50 0 int5a0 empty empty 17 7 0 10 -262144
-1 -1;
#X obj 165 179 bng 15 250 50 0 int5a9 empty empty 17 7 0 10 -262144
-1 -1;
#X obj 262 38 bng 15 250 50 0 int5a1 empty empty 17 7 0 10 -262144
-1 -1;
#X obj 262 85 bng 15 250 50 0 int5a4 empty empty 17 7 0 10 -262144
-1 -1;
#X obj 262 226 bng 15 250 50 0 int5a12 empty empty 17 7 0 10 -262144
-1 -1;
#X text 440 24 Score;
#X obj 165 85 bng 15 250 50 0 int5a3 empty empty 17 7 0 10 -262144
-1 -1;
#X obj 165 132 bng 15 250 50 0 int5a6 empty empty 17 7 0 10 -262144
-1 -1;
#X obj 262 132 bng 15 250 50 0 int5a7 empty empty 17 7 0 10 -262144
-1 -1;
#X obj 262 179 bng 15 250 50 0 int5a10 empty empty 17 7 0 10 -262144
-1 -1;
#X obj 359 179 bng 15 250 50 0 int5a11 empty empty 17 7 0 10 -262144
-1 -1;
#X obj 359 38 bng 15 250 50 0 int5a2 empty empty 17 7 0 10 -262144
-1 -1;
#X obj 359 132 bng 15 250 50 0 int5a8 empty empty 17 7 0 10 -262144
-1 -1;
#X symbolatom 442 84 12 0 0 0 - int5R -;
#X text 439 64 Result;
#X text 243 8 Level 5;
#X text 150 53 unison;
#X text 326 53 major second;
#X text 228 53 minor second;
#X text 132 99 minor third;
#X text 231 99 major third;
#X text 322 99 perfect fourth;
#X text 133 147 dim. fifth;
#X text 227 147 perfect fifth;
#X text 333 147 minor sixth;
#X text 133 193 major sixth;
#X text 229 193 minor seventh;
#X text 326 193 major seventh;
#X text 219 240 perfect octave;
#X obj 359 85 bng 15 250 50 0 int5a5 empty empty 17 7 0 10 -262144
-1 -1;
#X text 11 54 New interval;
#X restore 57 75 pd Level5;
#N canvas 10 324 1107 557 Level4 0;
#N canvas 163 191 450 278 (subpatch) 0;
#X coords 0 1 100 -1 320 240 1 0 0;
#X restore 111 29 graph;
#X floatatom 442 46 5 0 0 0 - score -;
#X obj 74 29 bng 25 250 50 0 int4S empty empty 17 7 0 10 -114521 -33289
-33289;
#X text 440 24 Score;
#X obj 165 132 bng 15 250 50 0 int4a0 empty empty 17 7 0 10 -262144
-1 -1;
#X obj 262 179 bng 15 250 50 0 int4a2 empty empty 17 7 0 10 -262144
-1 -1;
#X obj 359 132 bng 15 250 50 0 int4a1 empty empty 17 7 0 10 -262144
-1 -1;
#X symbolatom 442 84 12 0 0 0 - int4R -;
#X text 439 64 Result;
#X text 133 147 dim. fifth;
#X text 333 147 minor sixth;
#X text 229 193 minor seventh;
#X text 11 54 New interval;
#X text 243 8 Level 4;
#X restore 98 51 pd Level4;
#N canvas 9 323 1106 552 Level2 0;
#N canvas 163 191 450 278 (subpatch) 0;
#X coords 0 1 100 -1 320 240 1 0 0;
#X restore 111 29 graph;
#X floatatom 442 46 5 0 0 0 - score -;
#X obj 74 29 bng 25 250 50 0 int2S empty empty 17 7 0 10 -114521 -33289
-33289;
#X obj 165 179 bng 15 250 50 0 int2a3 empty empty 17 7 0 10 -262144
-1 -1;
#X obj 262 38 bng 15 250 50 0 int2a0 empty empty 17 7 0 10 -262144
-1 -1;
#X text 440 24 Score;
#X obj 165 85 bng 15 250 50 0 int2a1 empty empty 17 7 0 10 -262144
-1 -1;
#X obj 359 179 bng 15 250 50 0 int2a4 empty empty 17 7 0 10 -262144
-1 -1;
#X symbolatom 442 84 12 0 0 0 - int2R -;
#X text 439 64 Result;
#X text 228 53 minor second;
#X text 132 99 minor third;
#X text 322 99 perfect fourth;
#X text 133 193 major sixth;
#X text 326 193 major seventh;
#X obj 359 85 bng 15 250 50 0 int2a2 empty empty 17 7 0 10 -262144
-1 -1;
#X text 11 54 New interval;
#X text 243 8 Level 2;
#X restore 98 27 pd Level2;
#X restore 10 27 pd Intervals;
#N canvas 1115 243 921 545 Scales 0;
#X restore 10 93 pd Scales;
#N canvas 253 111 1120 573 Chords 0;
#N canvas 163 191 450 278 (subpatch) 0;
#X coords 0 1 100 -1 320 240 1 0 0;
#X restore 111 29 graph;
#X floatatom 442 46 5 0 0 0 - score -;
#X obj 74 29 bng 25 250 50 0 chordS empty empty 17 7 0 10 -114521 -33289
-33289;
#X obj 165 38 bng 15 250 50 0 chorda0 empty empty 17 7 0 10 -262144
-1 -1;
#X obj 165 179 bng 15 250 50 0 chorda9 empty empty 17 7 0 10 -262144
-1 -1;
#X obj 262 38 bng 15 250 50 0 chorda1 empty empty 17 7 0 10 -262144
-1 -1;
#X obj 262 85 bng 15 250 50 0 chorda4 empty empty 17 7 0 10 -262144
-1 -1;
#X obj 262 226 bng 15 250 50 0 chorda12 empty empty 17 7 0 10 -262144
-1 -1;
#X text 440 24 Score;
#X obj 165 85 bng 15 250 50 0 chorda3 empty empty 17 7 0 10 -262144
-1 -1;
#X obj 165 132 bng 15 250 50 0 chorda6 empty empty 17 7 0 10 -262144
-1 -1;
#X obj 262 132 bng 15 250 50 0 chorda7 empty empty 17 7 0 10 -262144
-1 -1;
#X obj 262 179 bng 15 250 50 0 chorda10 empty empty 17 7 0 10 -262144
-1 -1;
#X obj 359 179 bng 15 250 50 0 chorda11 empty empty 17 7 0 10 -262144
-1 -1;
#X obj 359 38 bng 15 250 50 0 chorda2 empty empty 17 7 0 10 -262144
-1 -1;
#X obj 359 132 bng 15 250 50 0 chorda8 empty empty 17 7 0 10 -262144
-1 -1;
#X symbolatom 442 84 12 0 0 0 - int5R -;
#X text 439 64 Result;
#X obj 359 85 bng 15 250 50 0 chorda5 empty empty 17 7 0 10 -262144
-1 -1;
#X text 245 8 Chords;
#X text 25 54 Play Chord;
#X text 150 53 major;
#X text 250 53 minor;
#X text 352 53 sus2;
#X text 156 99 sus4;
#X text 256 99 aug;
#X text 353 99 dim;
#X text 157 147 inv1;
#X text 253 147 inv2;
#X text 360 147 6;
#X text 164 193 m7;
#X text 255 193 add7;
#X text 351 193 maj7;
#X text 253 240 add9;
#X restore 10 60 pd Chords;
#X text 11 2 Ear training in PureData;
#X obj 110 126 cnv 15 80 24 empty empty empty 20 12 0 14 -262144 -66577
0;
#X floatatom 112 43 5 0 0 0 - score -;
#X text 110 21 Score;
#X coords 0 313 1 312 170 120 0;
