#N canvas 741 432 523 379 12;
#N canvas 812 414 1051 505 Tempo 0;
#X restore 26 153 pd Tempo;
#N canvas 0 22 450 278 (subpatch) 0;
#X coords 0 1 100 -1 98 128 1 0 0;
#X restore 22 50 graph;
#X obj 126 122 bng 15 250 50 0 resetScore startup empty 17 7 0 10 -262144
-1 -1;
#X text 141 119 reset score;
#N canvas 134 499 822 522 backend 0;
#X text 21 8 Increase Score;
#X obj 5 11 bng 15 250 50 0 scoreUp empty empty 17 7 0 10 -262144 -1
-1;
#N canvas 1400 463 450 300 score 0;
#X obj 105 103 outlet;
#X obj 155 103 s score;
#X floatatom 105 77 5 0 0 0 - - -;
#X obj 105 8 r scoreUp;
#X obj 105 31 f;
#X obj 105 54 + 1;
#X obj 11 8 r resetScore;
#X msg 11 31 -1;
#X connect 2 0 1 0;
#X connect 2 0 0 0;
#X connect 2 0 4 1;
#X connect 3 0 4 0;
#X connect 4 0 5 0;
#X connect 5 0 2 0;
#X connect 6 0 7 0;
#X connect 7 0 4 0;
#X restore 205 12 pd score;
#X floatatom 205 38 5 0 0 0 - - -;
#X text 244 38 current score;
#N canvas 234 442 450 300 int 0;
#N canvas 661 311 1955 825 int5 0;
#X obj 34 19 r int5S;
#X obj 34 43 random 13;
#X text 105 44 picks a random interval to check;
#X text 687 19 store which interval was chosen;
#X floatatom 617 43 5 0 0 0 - - -;
#X obj 41 67 s int5int;
#X obj 617 20 r int5int;
#N canvas 446 324 241 271 int5A 0;
#X obj 6 234 outlet;
#X msg 6 29 0;
#X msg 75 29 1;
#X msg 144 29 2;
#X msg 6 74 3;
#X msg 75 74 4;
#X msg 144 74 5;
#X msg 6 120 6;
#X msg 75 120 7;
#X msg 144 120 8;
#X msg 6 166 9;
#X msg 75 166 10;
#X msg 144 166 11;
#X msg 6 211 12;
#X obj 6 6 r int5a0;
#X obj 75 6 r int5a1;
#X obj 144 6 r int5a2;
#X obj 6 51 r int5a3;
#X obj 75 51 r int5a4;
#X obj 144 51 r int5a5;
#X obj 6 97 r int5a6;
#X obj 75 97 r int5a7;
#X obj 144 97 r int5a8;
#X obj 144 143 r int5a11;
#X obj 75 143 r int5a10;
#X obj 6 143 r int5a9;
#X obj 6 188 r int5a12;
#X connect 1 0 0 0;
#X connect 2 0 0 0;
#X connect 3 0 0 0;
#X connect 4 0 0 0;
#X connect 5 0 0 0;
#X connect 6 0 0 0;
#X connect 7 0 0 0;
#X connect 8 0 0 0;
#X connect 9 0 0 0;
#X connect 10 0 0 0;
#X connect 11 0 0 0;
#X connect 12 0 0 0;
#X connect 13 0 0 0;
#X connect 14 0 1 0;
#X connect 15 0 2 0;
#X connect 16 0 3 0;
#X connect 17 0 4 0;
#X connect 18 0 5 0;
#X connect 19 0 6 0;
#X connect 20 0 7 0;
#X connect 21 0 8 0;
#X connect 22 0 9 0;
#X connect 23 0 12 0;
#X connect 24 0 11 0;
#X connect 25 0 10 0;
#X connect 26 0 13 0;
#X restore 553 20 pd int5A;
#X floatatom 553 43 5 0 0 0 - - -;
#X text 391 19 which answer was given;
#X obj 553 65 ==;
#X text 588 65 check if answer was correct;
#X obj 553 89 tgl 20 0 empty empty empty 17 7 0 10 -262144 -1 -1 0
1;
#X obj 34 90 sel 0 1 2 3 4 5 6 7 8 9 10 11 12;
#X obj 585 144 bng 15 250 50 0 empty empty empty 17 7 0 10 -262144
-1 -1;
#X obj 553 144 bng 15 250 50 0 empty empty empty 17 7 0 10 -262144
-1 -1;
#X obj 553 115 sel 1;
#X text 498 142 correct;
#X text 604 142 incorrect;
#X obj 420 120 bng 15 250 50 0 empty empty empty 17 7 0 10 -262144
-1 -1;
#X msg 420 164 -1;
#X obj 420 140 delay 1;
#X text 319 118 reset checker;
#X obj 585 211 s int5R;
#X obj 458 164 symbol Correct!;
#X obj 585 187 symbol Incorrect!;
#X text 641 212 Send feedback of the result to the UI;
#X obj 501 211 s scoreUp;
#X text 348 211 Increase score by one;
#N canvas 672 273 1176 572 unison 0;
#X obj 37 37 inlet;
#X obj 37 133 makenote;
#X obj 37 179 noteout;
#X msg 102 90 100;
#X msg 102 133 1;
#X obj 69 63 delay 500;
#X msg 37 90 60;
#X msg 69 90 60;
#X connect 0 0 3 0;
#X connect 0 0 4 0;
#X connect 0 0 5 0;
#X connect 0 0 6 0;
#X connect 1 0 2 0;
#X connect 1 1 2 1;
#X connect 3 0 1 1;
#X connect 3 0 1 2;
#X connect 4 0 2 2;
#X connect 5 0 7 0;
#X connect 6 0 1 0;
#X connect 7 0 1 0;
#X restore 34 113 pd unison;
#N canvas 722 438 450 300 major-second 0;
#X obj 37 37 inlet;
#X obj 37 133 makenote;
#X obj 37 179 noteout;
#X msg 102 90 100;
#X msg 102 133 1;
#X obj 69 63 delay 500;
#X msg 37 90 60;
#X msg 69 90 62;
#X connect 0 0 3 0;
#X connect 0 0 4 0;
#X connect 0 0 5 0;
#X connect 0 0 6 0;
#X connect 1 0 2 0;
#X connect 1 1 2 1;
#X connect 3 0 1 1;
#X connect 3 0 1 2;
#X connect 4 0 2 2;
#X connect 5 0 7 0;
#X connect 6 0 1 0;
#X connect 7 0 1 0;
#X restore 68 151 pd major-second;
#N canvas 675 470 412 505 minor-second 0;
#X obj 10 6 inlet;
#X obj 10 102 makenote;
#X obj 29 145 noteout;
#X msg 75 59 100;
#X msg 75 102 1;
#X obj 42 32 delay 500;
#X msg 10 59 60;
#X msg 42 59 61;
#X connect 0 0 3 0;
#X connect 0 0 4 0;
#X connect 0 0 5 0;
#X connect 0 0 6 0;
#X connect 1 0 2 0;
#X connect 1 1 2 1;
#X connect 3 0 1 1;
#X connect 3 0 1 2;
#X connect 4 0 2 2;
#X connect 5 0 7 0;
#X connect 6 0 1 0;
#X connect 7 0 1 0;
#X restore 51 132 pd minor-second;
#N canvas 0 50 450 300 minor-third 0;
#X obj 37 37 inlet;
#X obj 37 133 makenote;
#X obj 37 179 noteout;
#X msg 102 90 100;
#X msg 102 133 1;
#X obj 69 63 delay 500;
#X msg 37 90 60;
#X msg 69 90 63;
#X connect 0 0 3 0;
#X connect 0 0 4 0;
#X connect 0 0 5 0;
#X connect 0 0 6 0;
#X connect 1 0 2 0;
#X connect 1 1 2 1;
#X connect 3 0 1 1;
#X connect 3 0 1 2;
#X connect 4 0 2 2;
#X connect 5 0 7 0;
#X connect 6 0 1 0;
#X connect 7 0 1 0;
#X restore 85 170 pd minor-third;
#N canvas 390 290 450 300 major-third 0;
#X obj 37 37 inlet;
#X obj 37 133 makenote;
#X obj 37 179 noteout;
#X msg 102 90 100;
#X msg 102 133 1;
#X obj 69 63 delay 500;
#X msg 37 90 60;
#X msg 69 90 64;
#X connect 0 0 3 0;
#X connect 0 0 4 0;
#X connect 0 0 5 0;
#X connect 0 0 6 0;
#X connect 1 0 2 0;
#X connect 1 1 2 1;
#X connect 3 0 1 1;
#X connect 3 0 1 2;
#X connect 4 0 2 2;
#X connect 5 0 7 0;
#X connect 6 0 1 0;
#X connect 7 0 1 0;
#X restore 102 189 pd major-third;
#N canvas 347 254 450 300 perfect-fourth 0;
#X obj 37 37 inlet;
#X obj 37 133 makenote;
#X obj 37 179 noteout;
#X msg 102 90 100;
#X msg 102 133 1;
#X obj 69 63 delay 500;
#X msg 37 90 60;
#X msg 69 90 65;
#X connect 0 0 3 0;
#X connect 0 0 4 0;
#X connect 0 0 5 0;
#X connect 0 0 6 0;
#X connect 1 0 2 0;
#X connect 1 1 2 1;
#X connect 3 0 1 1;
#X connect 3 0 1 2;
#X connect 4 0 2 2;
#X connect 5 0 7 0;
#X connect 6 0 1 0;
#X connect 7 0 1 0;
#X restore 119 208 pd perfect-fourth;
#N canvas 240 224 450 300 diminished-fifth 0;
#X obj 37 37 inlet;
#X obj 37 133 makenote;
#X obj 37 179 noteout;
#X msg 102 90 100;
#X msg 102 133 1;
#X obj 69 63 delay 500;
#X msg 37 90 60;
#X msg 69 90 66;
#X connect 0 0 3 0;
#X connect 0 0 4 0;
#X connect 0 0 5 0;
#X connect 0 0 6 0;
#X connect 1 0 2 0;
#X connect 1 1 2 1;
#X connect 3 0 1 1;
#X connect 3 0 1 2;
#X connect 4 0 2 2;
#X connect 5 0 7 0;
#X connect 6 0 1 0;
#X connect 7 0 1 0;
#X restore 136 227 pd diminished-fifth;
#N canvas 476 287 450 300 perfect-fifth 0;
#X obj 37 37 inlet;
#X obj 37 133 makenote;
#X obj 37 179 noteout;
#X msg 102 90 100;
#X msg 102 133 1;
#X obj 69 63 delay 500;
#X msg 37 90 60;
#X msg 69 90 67;
#X connect 0 0 3 0;
#X connect 0 0 4 0;
#X connect 0 0 5 0;
#X connect 0 0 6 0;
#X connect 1 0 2 0;
#X connect 1 1 2 1;
#X connect 3 0 1 1;
#X connect 3 0 1 2;
#X connect 4 0 2 2;
#X connect 5 0 7 0;
#X connect 6 0 1 0;
#X connect 7 0 1 0;
#X restore 153 246 pd perfect-fifth;
#N canvas 476 303 450 300 minor-sixth 0;
#X obj 37 37 inlet;
#X obj 37 133 makenote;
#X obj 37 179 noteout;
#X msg 102 90 100;
#X msg 102 133 1;
#X obj 69 63 delay 500;
#X msg 37 90 60;
#X msg 69 90 68;
#X connect 0 0 3 0;
#X connect 0 0 4 0;
#X connect 0 0 5 0;
#X connect 0 0 6 0;
#X connect 1 0 2 0;
#X connect 1 1 2 1;
#X connect 3 0 1 1;
#X connect 3 0 1 2;
#X connect 4 0 2 2;
#X connect 5 0 7 0;
#X connect 6 0 1 0;
#X connect 7 0 1 0;
#X restore 170 265 pd minor-sixth;
#N canvas 435 245 450 300 major-sixth 0;
#X obj 37 37 inlet;
#X obj 37 133 makenote;
#X obj 37 179 noteout;
#X msg 102 90 100;
#X msg 102 133 1;
#X obj 69 63 delay 500;
#X msg 37 90 60;
#X msg 69 90 69;
#X connect 0 0 3 0;
#X connect 0 0 4 0;
#X connect 0 0 5 0;
#X connect 0 0 6 0;
#X connect 1 0 2 0;
#X connect 1 1 2 1;
#X connect 3 0 1 1;
#X connect 3 0 1 2;
#X connect 4 0 2 2;
#X connect 5 0 7 0;
#X connect 6 0 1 0;
#X connect 7 0 1 0;
#X restore 187 284 pd major-sixth;
#N canvas 328 223 450 300 major-seventh 0;
#X obj 37 37 inlet;
#X obj 37 133 makenote;
#X obj 37 179 noteout;
#X msg 102 90 100;
#X msg 102 133 1;
#X obj 69 63 delay 500;
#X msg 37 90 60;
#X msg 69 90 71;
#X connect 0 0 3 0;
#X connect 0 0 4 0;
#X connect 0 0 5 0;
#X connect 0 0 6 0;
#X connect 1 0 2 0;
#X connect 1 1 2 1;
#X connect 3 0 1 1;
#X connect 3 0 1 2;
#X connect 4 0 2 2;
#X connect 5 0 7 0;
#X connect 6 0 1 0;
#X connect 7 0 1 0;
#X restore 221 322 pd major-seventh;
#N canvas 460 265 450 300 minor-seventh 0;
#X obj 37 37 inlet;
#X obj 37 133 makenote;
#X obj 37 179 noteout;
#X msg 102 90 100;
#X msg 102 133 1;
#X obj 69 63 delay 500;
#X msg 37 90 60;
#X msg 69 90 70;
#X connect 0 0 3 0;
#X connect 0 0 4 0;
#X connect 0 0 5 0;
#X connect 0 0 6 0;
#X connect 1 0 2 0;
#X connect 1 1 2 1;
#X connect 3 0 1 1;
#X connect 3 0 1 2;
#X connect 4 0 2 2;
#X connect 5 0 7 0;
#X connect 6 0 1 0;
#X connect 7 0 1 0;
#X restore 204 303 pd minor-seventh;
#N canvas 452 311 450 300 octave 0;
#X obj 37 37 inlet;
#X obj 37 133 makenote;
#X obj 37 179 noteout;
#X msg 102 90 100;
#X msg 102 133 1;
#X obj 69 63 delay 500;
#X msg 37 90 60;
#X msg 69 90 72;
#X connect 0 0 3 0;
#X connect 0 0 4 0;
#X connect 0 0 5 0;
#X connect 0 0 6 0;
#X connect 1 0 2 0;
#X connect 1 1 2 1;
#X connect 3 0 1 1;
#X connect 3 0 1 2;
#X connect 4 0 2 2;
#X connect 5 0 7 0;
#X connect 6 0 1 0;
#X connect 7 0 1 0;
#X restore 238 341 pd octave;
#X obj 600 164 float;
#X connect 0 0 1 0;
#X connect 1 0 5 0;
#X connect 1 0 13 0;
#X connect 4 0 10 1;
#X connect 4 0 42 1;
#X connect 6 0 4 0;
#X connect 7 0 8 0;
#X connect 8 0 10 0;
#X connect 10 0 12 0;
#X connect 12 0 16 0;
#X connect 13 0 29 0;
#X connect 13 1 31 0;
#X connect 13 2 30 0;
#X connect 13 3 32 0;
#X connect 13 4 33 0;
#X connect 13 5 34 0;
#X connect 13 6 35 0;
#X connect 13 7 36 0;
#X connect 13 8 37 0;
#X connect 13 9 38 0;
#X connect 13 10 40 0;
#X connect 13 11 39 0;
#X connect 13 12 41 0;
#X connect 14 0 25 0;
#X connect 14 0 42 0;
#X connect 15 0 19 0;
#X connect 15 0 24 0;
#X connect 15 0 27 0;
#X connect 16 0 15 0;
#X connect 16 1 14 0;
#X connect 19 0 21 0;
#X connect 20 0 4 0;
#X connect 21 0 20 0;
#X connect 24 0 23 0;
#X connect 25 0 23 0;
#X connect 42 0 13 0;
#X restore 10 10 pd int5;
#N canvas 737 386 450 300 int4 0;
#X text 105 44 picks a random interval to check;
#X text 687 19 store which interval was chosen;
#X floatatom 617 43 5 0 0 0 - - -;
#X floatatom 553 43 5 0 0 0 - - -;
#X text 391 19 which answer was given;
#X obj 553 65 ==;
#X text 588 65 check if answer was correct;
#X obj 553 89 tgl 20 0 empty empty empty 17 7 0 10 -262144 -1 -1 1
1;
#X obj 585 144 bng 15 250 50 0 empty empty empty 17 7 0 10 -262144
-1 -1;
#X obj 553 144 bng 15 250 50 0 empty empty empty 17 7 0 10 -262144
-1 -1;
#X obj 553 115 sel 1;
#X text 498 142 correct;
#X text 604 142 incorrect;
#X obj 420 120 bng 15 250 50 0 empty empty empty 17 7 0 10 -262144
-1 -1;
#X msg 420 164 -1;
#X obj 420 140 delay 1;
#X text 319 118 reset checker;
#X obj 458 164 symbol Correct!;
#X obj 585 187 symbol Incorrect!;
#X text 641 212 Send feedback of the result to the UI;
#X obj 501 211 s scoreUp;
#X text 348 211 Increase score by one;
#N canvas 240 224 450 300 diminished-fifth 0;
#X obj 37 37 inlet;
#X obj 37 133 makenote;
#X obj 37 179 noteout;
#X msg 102 90 100;
#X msg 102 133 1;
#X obj 69 63 delay 500;
#X msg 37 90 60;
#X msg 69 90 66;
#X connect 0 0 3 0;
#X connect 0 0 4 0;
#X connect 0 0 5 0;
#X connect 0 0 6 0;
#X connect 1 0 2 0;
#X connect 1 1 2 1;
#X connect 3 0 1 1;
#X connect 3 0 1 2;
#X connect 4 0 2 2;
#X connect 5 0 7 0;
#X connect 6 0 1 0;
#X connect 7 0 1 0;
#X restore 34 115 pd diminished-fifth;
#N canvas 476 303 450 300 minor-sixth 0;
#X obj 37 37 inlet;
#X obj 37 133 makenote;
#X obj 37 179 noteout;
#X msg 102 90 100;
#X msg 102 133 1;
#X obj 69 63 delay 500;
#X msg 37 90 60;
#X msg 69 90 68;
#X connect 0 0 3 0;
#X connect 0 0 4 0;
#X connect 0 0 5 0;
#X connect 0 0 6 0;
#X connect 1 0 2 0;
#X connect 1 1 2 1;
#X connect 3 0 1 1;
#X connect 3 0 1 2;
#X connect 4 0 2 2;
#X connect 5 0 7 0;
#X connect 6 0 1 0;
#X connect 7 0 1 0;
#X restore 54 134 pd minor-sixth;
#N canvas 460 265 450 300 minor-seventh 0;
#X obj 37 37 inlet;
#X obj 37 133 makenote;
#X obj 37 179 noteout;
#X msg 102 90 100;
#X msg 102 133 1;
#X obj 69 63 delay 500;
#X msg 37 90 60;
#X msg 69 90 70;
#X connect 0 0 3 0;
#X connect 0 0 4 0;
#X connect 0 0 5 0;
#X connect 0 0 6 0;
#X connect 1 0 2 0;
#X connect 1 1 2 1;
#X connect 3 0 1 1;
#X connect 3 0 1 2;
#X connect 4 0 2 2;
#X connect 5 0 7 0;
#X connect 6 0 1 0;
#X connect 7 0 1 0;
#X restore 74 153 pd minor-seventh;
#X obj 600 164 float;
#X obj 34 19 r int4S;
#X obj 34 43 random 3;
#X obj 41 67 s int4int;
#X obj 34 90 sel 0 1 2;
#N canvas -11 -11 2560 1330 int4A 0;
#X obj 6 234 outlet;
#X msg 6 29 0;
#X msg 75 29 1;
#X msg 144 29 2;
#X obj 6 6 r int4a0;
#X obj 75 6 r int4a1;
#X obj 144 6 r int4a2;
#X connect 1 0 0 0;
#X connect 2 0 0 0;
#X connect 3 0 0 0;
#X connect 4 0 1 0;
#X connect 5 0 2 0;
#X connect 6 0 3 0;
#X restore 553 20 pd int4A;
#X obj 617 20 r int4int;
#X obj 585 211 s int4R;
#X connect 2 0 5 1;
#X connect 2 0 25 1;
#X connect 3 0 5 0;
#X connect 5 0 7 0;
#X connect 7 0 10 0;
#X connect 8 0 18 0;
#X connect 8 0 25 0;
#X connect 9 0 13 0;
#X connect 9 0 17 0;
#X connect 9 0 20 0;
#X connect 10 0 9 0;
#X connect 10 1 8 0;
#X connect 13 0 15 0;
#X connect 14 0 2 0;
#X connect 15 0 14 0;
#X connect 17 0 32 0;
#X connect 18 0 32 0;
#X connect 25 0 29 0;
#X connect 26 0 27 0;
#X connect 27 0 28 0;
#X connect 27 0 29 0;
#X connect 29 0 22 0;
#X connect 29 1 23 0;
#X connect 29 2 24 0;
#X connect 30 0 3 0;
#X connect 31 0 2 0;
#X restore 10 34 pd int4;
#N canvas 242 0 1842 1318 int3 0;
#X text 105 44 picks a random interval to check;
#X text 687 19 store which interval was chosen;
#X floatatom 617 43 5 0 0 0 - - -;
#X floatatom 553 43 5 0 0 0 - - -;
#X text 391 19 which answer was given;
#X obj 553 65 ==;
#X text 588 65 check if answer was correct;
#X obj 553 89 tgl 20 0 empty empty empty 17 7 0 10 -262144 -1 -1 1
1;
#X obj 585 144 bng 15 250 50 0 empty empty empty 17 7 0 10 -262144
-1 -1;
#X obj 553 144 bng 15 250 50 0 empty empty empty 17 7 0 10 -262144
-1 -1;
#X obj 553 115 sel 1;
#X text 498 142 correct;
#X text 604 142 incorrect;
#X obj 420 120 bng 15 250 50 0 empty empty empty 17 7 0 10 -262144
-1 -1;
#X msg 420 164 -1;
#X obj 420 140 delay 1;
#X text 319 118 reset checker;
#X obj 458 164 symbol Correct!;
#X obj 585 187 symbol Incorrect!;
#X text 641 212 Send feedback of the result to the UI;
#X obj 501 211 s scoreUp;
#X text 348 211 Increase score by one;
#N canvas 672 273 1176 572 unison 0;
#X obj 37 37 inlet;
#X obj 37 133 makenote;
#X obj 37 179 noteout;
#X msg 102 90 100;
#X msg 102 133 1;
#X obj 69 63 delay 500;
#X msg 37 90 60;
#X msg 69 90 60;
#X connect 0 0 3 0;
#X connect 0 0 4 0;
#X connect 0 0 5 0;
#X connect 0 0 6 0;
#X connect 1 0 2 0;
#X connect 1 1 2 1;
#X connect 3 0 1 1;
#X connect 3 0 1 2;
#X connect 4 0 2 2;
#X connect 5 0 7 0;
#X connect 6 0 1 0;
#X connect 7 0 1 0;
#X restore 34 113 pd unison;
#N canvas 722 438 450 300 major-second 0;
#X obj 37 37 inlet;
#X obj 37 133 makenote;
#X obj 37 179 noteout;
#X msg 102 90 100;
#X msg 102 133 1;
#X obj 69 63 delay 500;
#X msg 37 90 60;
#X msg 69 90 62;
#X connect 0 0 3 0;
#X connect 0 0 4 0;
#X connect 0 0 5 0;
#X connect 0 0 6 0;
#X connect 1 0 2 0;
#X connect 1 1 2 1;
#X connect 3 0 1 1;
#X connect 3 0 1 2;
#X connect 4 0 2 2;
#X connect 5 0 7 0;
#X connect 6 0 1 0;
#X connect 7 0 1 0;
#X restore 66 151 pd major-second;
#N canvas 675 470 412 505 minor-second 0;
#X obj 10 6 inlet;
#X obj 10 102 makenote;
#X obj 29 145 noteout;
#X msg 75 59 100;
#X msg 75 102 1;
#X obj 42 32 delay 500;
#X msg 10 59 60;
#X msg 42 59 61;
#X connect 0 0 3 0;
#X connect 0 0 4 0;
#X connect 0 0 5 0;
#X connect 0 0 6 0;
#X connect 1 0 2 0;
#X connect 1 1 2 1;
#X connect 3 0 1 1;
#X connect 3 0 1 2;
#X connect 4 0 2 2;
#X connect 5 0 7 0;
#X connect 6 0 1 0;
#X connect 7 0 1 0;
#X restore 50 132 pd minor-second;
#N canvas 0 50 450 300 minor-third 0;
#X obj 37 37 inlet;
#X obj 37 133 makenote;
#X obj 37 179 noteout;
#X msg 102 90 100;
#X msg 102 133 1;
#X obj 69 63 delay 500;
#X msg 37 90 60;
#X msg 69 90 63;
#X connect 0 0 3 0;
#X connect 0 0 4 0;
#X connect 0 0 5 0;
#X connect 0 0 6 0;
#X connect 1 0 2 0;
#X connect 1 1 2 1;
#X connect 3 0 1 1;
#X connect 3 0 1 2;
#X connect 4 0 2 2;
#X connect 5 0 7 0;
#X connect 6 0 1 0;
#X connect 7 0 1 0;
#X restore 81 170 pd minor-third;
#N canvas 390 290 450 300 major-third 0;
#X obj 37 37 inlet;
#X obj 37 133 makenote;
#X obj 37 179 noteout;
#X msg 102 90 100;
#X msg 102 133 1;
#X obj 69 63 delay 500;
#X msg 37 90 60;
#X msg 69 90 64;
#X connect 0 0 3 0;
#X connect 0 0 4 0;
#X connect 0 0 5 0;
#X connect 0 0 6 0;
#X connect 1 0 2 0;
#X connect 1 1 2 1;
#X connect 3 0 1 1;
#X connect 3 0 1 2;
#X connect 4 0 2 2;
#X connect 5 0 7 0;
#X connect 6 0 1 0;
#X connect 7 0 1 0;
#X restore 97 189 pd major-third;
#N canvas 376 242 450 300 perfect-fourth 0;
#X obj 37 37 inlet;
#X obj 37 133 makenote;
#X obj 37 179 noteout;
#X msg 102 90 100;
#X msg 102 133 1;
#X obj 69 63 delay 500;
#X msg 37 90 60;
#X msg 69 90 65;
#X connect 0 0 3 0;
#X connect 0 0 4 0;
#X connect 0 0 5 0;
#X connect 0 0 6 0;
#X connect 1 0 2 0;
#X connect 1 1 2 1;
#X connect 3 0 1 1;
#X connect 3 0 1 2;
#X connect 4 0 2 2;
#X connect 5 0 7 0;
#X connect 6 0 1 0;
#X connect 7 0 1 0;
#X restore 114 208 pd perfect-fourth;
#N canvas 1016 305 744 544 perfect-fifth 0;
#X obj 37 37 inlet;
#X obj 37 133 makenote;
#X obj 37 179 noteout;
#X msg 102 90 100;
#X msg 102 133 1;
#X obj 69 63 delay 500;
#X msg 37 90 60;
#X msg 69 90 67;
#X connect 0 0 3 0;
#X connect 0 0 4 0;
#X connect 0 0 5 0;
#X connect 0 0 6 0;
#X connect 1 0 2 0;
#X connect 1 1 2 1;
#X connect 3 0 1 1;
#X connect 3 0 1 2;
#X connect 4 0 2 2;
#X connect 5 0 7 0;
#X connect 6 0 1 0;
#X connect 7 0 1 0;
#X coords 0 0 0.5 0.5 0 0 0;
#X restore 129 227 pd perfect-fifth;
#N canvas 435 245 450 300 major-sixth 0;
#X obj 37 37 inlet;
#X obj 37 133 makenote;
#X obj 37 179 noteout;
#X msg 102 90 100;
#X msg 102 133 1;
#X obj 69 63 delay 500;
#X msg 37 90 60;
#X msg 69 90 69;
#X connect 0 0 3 0;
#X connect 0 0 4 0;
#X connect 0 0 5 0;
#X connect 0 0 6 0;
#X connect 1 0 2 0;
#X connect 1 1 2 1;
#X connect 3 0 1 1;
#X connect 3 0 1 2;
#X connect 4 0 2 2;
#X connect 5 0 7 0;
#X connect 6 0 1 0;
#X connect 7 0 1 0;
#X restore 145 246 pd major-sixth;
#N canvas 328 223 450 300 major-seventh 0;
#X obj 37 37 inlet;
#X obj 37 133 makenote;
#X obj 37 179 noteout;
#X msg 102 90 100;
#X msg 102 133 1;
#X obj 69 63 delay 500;
#X msg 37 90 60;
#X msg 69 90 71;
#X connect 0 0 3 0;
#X connect 0 0 4 0;
#X connect 0 0 5 0;
#X connect 0 0 6 0;
#X connect 1 0 2 0;
#X connect 1 1 2 1;
#X connect 3 0 1 1;
#X connect 3 0 1 2;
#X connect 4 0 2 2;
#X connect 5 0 7 0;
#X connect 6 0 1 0;
#X connect 7 0 1 0;
#X restore 160 265 pd major-seventh;
#N canvas 452 311 450 300 octave 0;
#X obj 37 37 inlet;
#X obj 37 133 makenote;
#X obj 37 179 noteout;
#X msg 102 90 100;
#X msg 102 133 1;
#X obj 69 63 delay 500;
#X msg 37 90 60;
#X msg 69 90 72;
#X connect 0 0 3 0;
#X connect 0 0 4 0;
#X connect 0 0 5 0;
#X connect 0 0 6 0;
#X connect 1 0 2 0;
#X connect 1 1 2 1;
#X connect 3 0 1 1;
#X connect 3 0 1 2;
#X connect 4 0 2 2;
#X connect 5 0 7 0;
#X connect 6 0 1 0;
#X connect 7 0 1 0;
#X restore 176 284 pd octave;
#X obj 600 164 float;
#X obj 34 43 random 10;
#X obj 34 90 sel 0 1 2 3 4 5 6 7 8 9;
#X obj 34 19 r int3S;
#X obj 41 67 s int3int;
#N canvas 446 285 1112 772 int3A 0;
#X obj 6 234 outlet;
#X msg 6 29 0;
#X msg 75 29 1;
#X msg 144 29 2;
#X msg 6 74 3;
#X msg 75 74 4;
#X msg 144 74 5;
#X msg 6 120 6;
#X msg 75 120 7;
#X msg 144 120 8;
#X msg 6 166 9;
#X obj 6 6 r int3a0;
#X obj 75 6 r int3a1;
#X obj 144 6 r int3a2;
#X obj 6 51 r int3a3;
#X obj 75 51 r int3a4;
#X obj 144 51 r int3a5;
#X obj 6 97 r int3a6;
#X obj 75 97 r int3a7;
#X obj 144 97 r int3a8;
#X obj 6 143 r int3a9;
#X connect 1 0 0 0;
#X connect 2 0 0 0;
#X connect 3 0 0 0;
#X connect 4 0 0 0;
#X connect 5 0 0 0;
#X connect 6 0 0 0;
#X connect 7 0 0 0;
#X connect 8 0 0 0;
#X connect 9 0 0 0;
#X connect 10 0 0 0;
#X connect 11 0 1 0;
#X connect 12 0 2 0;
#X connect 13 0 3 0;
#X connect 14 0 4 0;
#X connect 15 0 5 0;
#X connect 16 0 6 0;
#X connect 17 0 7 0;
#X connect 18 0 8 0;
#X connect 19 0 9 0;
#X connect 20 0 10 0;
#X restore 553 20 pd int3A;
#X obj 617 20 r int3int;
#X obj 585 211 s int3R;
#X connect 2 0 5 1;
#X connect 2 0 32 1;
#X connect 3 0 5 0;
#X connect 5 0 7 0;
#X connect 7 0 10 0;
#X connect 8 0 18 0;
#X connect 8 0 32 0;
#X connect 9 0 13 0;
#X connect 9 0 17 0;
#X connect 9 0 20 0;
#X connect 10 0 9 0;
#X connect 10 1 8 0;
#X connect 13 0 15 0;
#X connect 14 0 2 0;
#X connect 15 0 14 0;
#X connect 17 0 39 0;
#X connect 18 0 39 0;
#X connect 32 0 34 0;
#X connect 33 0 34 0;
#X connect 33 0 36 0;
#X connect 34 0 22 0;
#X connect 34 1 24 0;
#X connect 34 2 23 0;
#X connect 34 3 25 0;
#X connect 34 4 26 0;
#X connect 34 5 27 0;
#X connect 34 6 28 0;
#X connect 34 7 29 0;
#X connect 34 8 30 0;
#X connect 34 9 31 0;
#X connect 35 0 33 0;
#X connect 37 0 3 0;
#X connect 38 0 2 0;
#X restore 10 57 pd int3;
#N canvas 1039 627 1659 677 int2 0;
#X text 105 44 picks a random interval to check;
#X text 537 29 store which interval was chosen;
#X floatatom 467 53 5 0 0 0 - - -;
#X floatatom 403 53 5 0 0 0 - - -;
#X text 241 29 which answer was given;
#X obj 403 75 ==;
#X text 438 75 check if answer was correct;
#X obj 403 99 tgl 20 0 empty empty empty 17 7 0 10 -262144 -1 -1 1
1;
#X obj 435 154 bng 15 250 50 0 empty empty empty 17 7 0 10 -262144
-1 -1;
#X obj 403 154 bng 15 250 50 0 empty empty empty 17 7 0 10 -262144
-1 -1;
#X obj 403 125 sel 1;
#X text 348 152 correct;
#X text 454 152 incorrect;
#X obj 270 130 bng 15 250 50 0 empty empty empty 17 7 0 10 -262144
-1 -1;
#X msg 270 174 -1;
#X obj 270 150 delay 1;
#X text 169 128 reset checker;
#X obj 308 174 symbol Correct!;
#X obj 435 197 symbol Incorrect!;
#X text 491 222 Send feedback of the result to the UI;
#X obj 351 221 s scoreUp;
#X text 198 221 Increase score by one;
#X obj 450 174 float;
#X obj 34 43 random 5;
#X obj 34 90 sel 0 1 2 3 4;
#X obj 34 19 r int2S;
#X obj 41 67 s int2int;
#N canvas 814 489 1209 715 int2A 0;
#X obj 6 98 outlet;
#X msg 6 29 0;
#X msg 75 29 1;
#X msg 144 29 2;
#X msg 6 74 3;
#X msg 75 74 4;
#X obj 6 6 r int2a0;
#X obj 75 6 r int2a1;
#X obj 144 6 r int2a2;
#X obj 6 51 r int2a3;
#X obj 75 51 r int2a4;
#X connect 1 0 0 0;
#X connect 2 0 0 0;
#X connect 3 0 0 0;
#X connect 4 0 0 0;
#X connect 5 0 0 0;
#X connect 6 0 1 0;
#X connect 7 0 2 0;
#X connect 8 0 3 0;
#X connect 9 0 4 0;
#X connect 10 0 5 0;
#X restore 403 30 pd int2A;
#X obj 467 30 r int2int;
#X obj 435 221 s int2R;
#N canvas 675 470 412 505 minor-second 0;
#X obj 10 6 inlet;
#X obj 10 102 makenote;
#X obj 29 145 noteout;
#X msg 75 59 100;
#X msg 75 102 1;
#X obj 42 32 delay 500;
#X msg 10 59 60;
#X msg 42 59 61;
#X connect 0 0 3 0;
#X connect 0 0 4 0;
#X connect 0 0 5 0;
#X connect 0 0 6 0;
#X connect 1 0 2 0;
#X connect 1 1 2 1;
#X connect 3 0 1 1;
#X connect 3 0 1 2;
#X connect 4 0 2 2;
#X connect 5 0 7 0;
#X connect 6 0 1 0;
#X connect 7 0 1 0;
#X restore 34 113 pd minor-second;
#N canvas 0 50 450 300 minor-third 0;
#X obj 37 37 inlet;
#X obj 37 133 makenote;
#X obj 37 179 noteout;
#X msg 102 90 100;
#X msg 102 133 1;
#X obj 69 63 delay 500;
#X msg 37 90 60;
#X msg 69 90 63;
#X connect 0 0 3 0;
#X connect 0 0 4 0;
#X connect 0 0 5 0;
#X connect 0 0 6 0;
#X connect 1 0 2 0;
#X connect 1 1 2 1;
#X connect 3 0 1 1;
#X connect 3 0 1 2;
#X connect 4 0 2 2;
#X connect 5 0 7 0;
#X connect 6 0 1 0;
#X connect 7 0 1 0;
#X restore 52 132 pd minor-third;
#N canvas 347 254 450 300 perfect-fourth 0;
#X obj 37 37 inlet;
#X obj 37 133 makenote;
#X obj 37 179 noteout;
#X msg 102 90 100;
#X msg 102 133 1;
#X obj 69 63 delay 500;
#X msg 37 90 60;
#X msg 69 90 65;
#X connect 0 0 3 0;
#X connect 0 0 4 0;
#X connect 0 0 5 0;
#X connect 0 0 6 0;
#X connect 1 0 2 0;
#X connect 1 1 2 1;
#X connect 3 0 1 1;
#X connect 3 0 1 2;
#X connect 4 0 2 2;
#X connect 5 0 7 0;
#X connect 6 0 1 0;
#X connect 7 0 1 0;
#X restore 69 151 pd perfect-fourth;
#N canvas 435 245 450 300 major-sixth 0;
#X obj 37 37 inlet;
#X obj 37 133 makenote;
#X obj 37 179 noteout;
#X msg 102 90 100;
#X msg 102 133 1;
#X obj 69 63 delay 500;
#X msg 37 90 60;
#X msg 69 90 69;
#X connect 0 0 3 0;
#X connect 0 0 4 0;
#X connect 0 0 5 0;
#X connect 0 0 6 0;
#X connect 1 0 2 0;
#X connect 1 1 2 1;
#X connect 3 0 1 1;
#X connect 3 0 1 2;
#X connect 4 0 2 2;
#X connect 5 0 7 0;
#X connect 6 0 1 0;
#X connect 7 0 1 0;
#X restore 87 170 pd major-sixth;
#N canvas 328 223 450 300 major-seventh 0;
#X obj 37 37 inlet;
#X obj 37 133 makenote;
#X obj 37 179 noteout;
#X msg 102 90 100;
#X msg 102 133 1;
#X obj 69 63 delay 500;
#X msg 37 90 60;
#X msg 69 90 71;
#X connect 0 0 3 0;
#X connect 0 0 4 0;
#X connect 0 0 5 0;
#X connect 0 0 6 0;
#X connect 1 0 2 0;
#X connect 1 1 2 1;
#X connect 3 0 1 1;
#X connect 3 0 1 2;
#X connect 4 0 2 2;
#X connect 5 0 7 0;
#X connect 6 0 1 0;
#X connect 7 0 1 0;
#X restore 104 189 pd major-seventh;
#X connect 2 0 5 1;
#X connect 2 0 22 1;
#X connect 3 0 5 0;
#X connect 5 0 7 0;
#X connect 7 0 10 0;
#X connect 8 0 18 0;
#X connect 8 0 22 0;
#X connect 9 0 13 0;
#X connect 9 0 17 0;
#X connect 9 0 20 0;
#X connect 10 0 9 0;
#X connect 10 1 8 0;
#X connect 13 0 15 0;
#X connect 14 0 2 0;
#X connect 15 0 14 0;
#X connect 17 0 29 0;
#X connect 18 0 29 0;
#X connect 22 0 24 0;
#X connect 23 0 24 0;
#X connect 23 0 26 0;
#X connect 24 0 30 0;
#X connect 24 1 31 0;
#X connect 24 2 32 0;
#X connect 24 3 33 0;
#X connect 24 4 34 0;
#X connect 25 0 23 0;
#X connect 27 0 3 0;
#X connect 28 0 2 0;
#X restore 10 81 pd int2;
#N canvas 748 181 1521 937 int1 0;
#X text 105 44 picks a random interval to check;
#X text 537 29 store which interval was chosen;
#X floatatom 467 53 5 0 0 0 - - -;
#X floatatom 403 53 5 0 0 0 - - -;
#X text 241 29 which answer was given;
#X obj 403 75 ==;
#X text 438 75 check if answer was correct;
#X obj 403 99 tgl 20 0 empty empty empty 17 7 0 10 -262144 -1 -1 1
1;
#X obj 435 154 bng 15 250 50 0 empty empty empty 17 7 0 10 -262144
-1 -1;
#X obj 403 154 bng 15 250 50 0 empty empty empty 17 7 0 10 -262144
-1 -1;
#X obj 403 125 sel 1;
#X text 348 152 correct;
#X text 454 152 incorrect;
#X obj 270 130 bng 15 250 50 0 empty empty empty 17 7 0 10 -262144
-1 -1;
#X msg 270 174 -1;
#X obj 270 150 delay 1;
#X text 169 128 reset checker;
#X obj 308 174 symbol Correct!;
#X obj 435 197 symbol Incorrect!;
#X text 491 222 Send feedback of the result to the UI;
#X obj 351 221 s scoreUp;
#X text 198 221 Increase score by one;
#N canvas 672 273 1176 572 unison 0;
#X obj 37 37 inlet;
#X obj 37 133 makenote;
#X obj 37 179 noteout;
#X msg 102 90 100;
#X msg 102 133 1;
#X obj 69 63 delay 500;
#X msg 37 90 60;
#X msg 69 90 60;
#X connect 0 0 3 0;
#X connect 0 0 4 0;
#X connect 0 0 5 0;
#X connect 0 0 6 0;
#X connect 1 0 2 0;
#X connect 1 1 2 1;
#X connect 3 0 1 1;
#X connect 3 0 1 2;
#X connect 4 0 2 2;
#X connect 5 0 7 0;
#X connect 6 0 1 0;
#X connect 7 0 1 0;
#X restore 34 113 pd unison;
#N canvas 722 438 450 300 major-second 0;
#X obj 37 37 inlet;
#X obj 37 133 makenote;
#X obj 37 179 noteout;
#X msg 102 90 100;
#X msg 102 133 1;
#X obj 69 63 delay 500;
#X msg 37 90 60;
#X msg 69 90 62;
#X connect 0 0 3 0;
#X connect 0 0 4 0;
#X connect 0 0 5 0;
#X connect 0 0 6 0;
#X connect 1 0 2 0;
#X connect 1 1 2 1;
#X connect 3 0 1 1;
#X connect 3 0 1 2;
#X connect 4 0 2 2;
#X connect 5 0 7 0;
#X connect 6 0 1 0;
#X connect 7 0 1 0;
#X restore 52 132 pd major-second;
#N canvas 390 290 450 300 major-third 0;
#X obj 37 37 inlet;
#X obj 37 133 makenote;
#X obj 37 179 noteout;
#X msg 102 90 100;
#X msg 102 133 1;
#X obj 69 63 delay 500;
#X msg 37 90 60;
#X msg 69 90 64;
#X connect 0 0 3 0;
#X connect 0 0 4 0;
#X connect 0 0 5 0;
#X connect 0 0 6 0;
#X connect 1 0 2 0;
#X connect 1 1 2 1;
#X connect 3 0 1 1;
#X connect 3 0 1 2;
#X connect 4 0 2 2;
#X connect 5 0 7 0;
#X connect 6 0 1 0;
#X connect 7 0 1 0;
#X restore 69 151 pd major-third;
#N canvas 476 287 450 300 perfect-fifth 0;
#X obj 37 37 inlet;
#X obj 37 133 makenote;
#X obj 37 179 noteout;
#X msg 102 90 100;
#X msg 102 133 1;
#X obj 69 63 delay 500;
#X msg 37 90 60;
#X msg 69 90 67;
#X connect 0 0 3 0;
#X connect 0 0 4 0;
#X connect 0 0 5 0;
#X connect 0 0 6 0;
#X connect 1 0 2 0;
#X connect 1 1 2 1;
#X connect 3 0 1 1;
#X connect 3 0 1 2;
#X connect 4 0 2 2;
#X connect 5 0 7 0;
#X connect 6 0 1 0;
#X connect 7 0 1 0;
#X restore 87 170 pd perfect-fifth;
#N canvas 452 311 450 300 octave 0;
#X obj 37 37 inlet;
#X obj 37 133 makenote;
#X obj 37 179 noteout;
#X msg 102 90 100;
#X msg 102 133 1;
#X obj 69 63 delay 500;
#X msg 37 90 60;
#X msg 69 90 72;
#X connect 0 0 3 0;
#X connect 0 0 4 0;
#X connect 0 0 5 0;
#X connect 0 0 6 0;
#X connect 1 0 2 0;
#X connect 1 1 2 1;
#X connect 3 0 1 1;
#X connect 3 0 1 2;
#X connect 4 0 2 2;
#X connect 5 0 7 0;
#X connect 6 0 1 0;
#X connect 7 0 1 0;
#X restore 104 189 pd octave;
#X obj 450 174 float;
#X obj 34 43 random 5;
#X obj 34 90 sel 0 1 2 3 4;
#X obj 34 19 r int1S;
#X obj 41 67 s int1int;
#N canvas 446 324 1209 715 int1A 0;
#X obj 6 98 outlet;
#X msg 6 29 0;
#X msg 75 29 1;
#X msg 144 29 2;
#X msg 6 74 3;
#X msg 75 74 4;
#X obj 6 6 r int1a0;
#X obj 75 6 r int1a1;
#X obj 144 6 r int1a2;
#X obj 6 51 r int1a3;
#X obj 75 51 r int1a4;
#X connect 1 0 0 0;
#X connect 2 0 0 0;
#X connect 3 0 0 0;
#X connect 4 0 0 0;
#X connect 5 0 0 0;
#X connect 6 0 1 0;
#X connect 7 0 2 0;
#X connect 8 0 3 0;
#X connect 9 0 4 0;
#X connect 10 0 5 0;
#X restore 403 30 pd int1A;
#X obj 467 30 r int1int;
#X obj 435 221 s int1R;
#X connect 2 0 5 1;
#X connect 2 0 27 1;
#X connect 3 0 5 0;
#X connect 5 0 7 0;
#X connect 7 0 10 0;
#X connect 8 0 18 0;
#X connect 8 0 27 0;
#X connect 9 0 13 0;
#X connect 9 0 17 0;
#X connect 9 0 20 0;
#X connect 10 0 9 0;
#X connect 10 1 8 0;
#X connect 13 0 15 0;
#X connect 14 0 2 0;
#X connect 15 0 14 0;
#X connect 17 0 34 0;
#X connect 18 0 34 0;
#X connect 27 0 29 0;
#X connect 28 0 29 0;
#X connect 28 0 31 0;
#X connect 29 0 22 0;
#X connect 29 1 23 0;
#X connect 29 2 24 0;
#X connect 29 3 25 0;
#X connect 29 4 26 0;
#X connect 30 0 28 0;
#X connect 32 0 3 0;
#X connect 33 0 2 0;
#X restore 10 105 pd int1;
#X restore 205 64 pd int;
#X connect 2 0 3 0;
#X coords 0 0 0.5 0.5 170 120 0;
#X restore 127 154 pd backend;
#N canvas 882 506 485 242 Intervals 0;
#N canvas 0 22 450 278 (subpatch) 0;
#X coords 0 1 100 -1 170 80 1 0 0;
#X restore 11 21 graph;
#X text 70 1 Levels;
#X floatatom 187 40 5 0 0 0 - score -;
#X text 185 18 Score;
#N canvas 790 427 1110 587 Level1 0;
#N canvas 163 191 450 278 (subpatch) 0;
#X coords 0 1 100 -1 320 240 1 0 0;
#X restore 111 29 graph;
#X floatatom 442 46 5 0 0 0 - score -;
#X obj 74 29 bng 25 250 50 0 int1S empty empty 17 7 0 10 -114521 -33289
-33289;
#X obj 165 38 bng 15 250 50 0 int1a0 empty empty 17 7 0 10 -262144
-1 -1;
#X obj 262 85 bng 15 250 50 0 int1a2 empty empty 17 7 0 10 -262144
-1 -1;
#X obj 262 226 bng 15 250 50 0 int1a4 empty empty 17 7 0 10 -262144
-1 -1;
#X text 440 24 Score;
#X obj 262 132 bng 15 250 50 0 int1a3 empty empty 17 7 0 10 -262144
-1 -1;
#X obj 359 38 bng 15 250 50 0 int1a1 empty empty 17 7 0 10 -262144
-1 -1;
#X symbolatom 442 84 12 0 0 0 - int1R -;
#X text 439 64 Result;
#X text 150 53 unison;
#X text 326 53 major second;
#X text 231 99 major third;
#X text 227 147 perfect fifth;
#X text 219 240 perfect octave;
#X text 11 54 New interval;
#X text 243 8 Level 1;
#X restore 18 27 pd Level1;
#N canvas 826 190 1440 800 Level3 0;
#N canvas 163 191 450 278 (subpatch) 0;
#X coords 0 1 100 -1 320 240 1 0 0;
#X restore 111 29 graph;
#X floatatom 442 46 5 0 0 0 - score -;
#X obj 74 29 bng 25 250 50 0 int3S empty empty 17 7 0 10 -114521 -33289
-33289;
#X obj 165 38 bng 15 250 50 0 int3a0 empty empty 17 7 0 10 -262144
-1 -1;
#X obj 165 179 bng 15 250 50 0 int3a7 empty empty 17 7 0 10 -262144
-1 -1;
#X obj 262 38 bng 15 250 50 0 int3a1 empty empty 17 7 0 10 -262144
-1 -1;
#X obj 262 85 bng 15 250 50 0 int3a4 empty empty 17 7 0 10 -262144
-1 -1;
#X obj 262 226 bng 15 250 50 0 int3a9 empty empty 17 7 0 10 -262144
-1 -1;
#X text 440 24 Score;
#X obj 165 85 bng 15 250 50 0 int3a3 empty empty 17 7 0 10 -262144
-1 -1;
#X obj 262 132 bng 15 250 50 0 int3a6 empty empty 17 7 0 10 -262144
-1 -1;
#X obj 359 179 bng 15 250 50 0 int3a8 empty empty 17 7 0 10 -262144
-1 -1;
#X obj 359 38 bng 15 250 50 0 int3a2 empty empty 17 7 0 10 -262144
-1 -1;
#X symbolatom 442 84 12 0 0 0 - int3R -;
#X text 439 64 Result;
#X text 150 53 unison;
#X text 326 53 major second;
#X text 228 53 minor second;
#X text 132 99 minor third;
#X text 231 99 major third;
#X text 322 99 perfect fourth;
#X text 227 147 perfect fifth;
#X text 133 193 major sixth;
#X text 326 193 major seventh;
#X text 219 240 perfect octave;
#X obj 359 85 bng 15 250 50 0 int3a5 empty empty 17 7 0 10 -262144
-1 -1;
#X text 11 54 New interval;
#X text 243 8 Level 3;
#X coords 0 0 0.5 0.5 0 0 0;
#X restore 18 51 pd Level3;
#N canvas 797 441 1131 596 Level5 0;
#N canvas 163 191 450 278 (subpatch) 0;
#X coords 0 1 100 -1 320 240 1 0 0;
#X restore 111 29 graph;
#X floatatom 442 46 5 0 0 0 - score -;
#X obj 74 29 bng 25 250 50 0 int5S empty empty 17 7 0 10 -114521 -33289
-33289;
#X obj 165 38 bng 15 250 50 0 int5a0 empty empty 17 7 0 10 -262144
-1 -1;
#X obj 165 179 bng 15 250 50 0 int5a9 empty empty 17 7 0 10 -262144
-1 -1;
#X obj 262 38 bng 15 250 50 0 int5a1 empty empty 17 7 0 10 -262144
-1 -1;
#X obj 262 85 bng 15 250 50 0 int5a4 empty empty 17 7 0 10 -262144
-1 -1;
#X obj 262 226 bng 15 250 50 0 int5a12 empty empty 17 7 0 10 -262144
-1 -1;
#X text 440 24 Score;
#X obj 165 85 bng 15 250 50 0 int5a3 empty empty 17 7 0 10 -262144
-1 -1;
#X obj 165 132 bng 15 250 50 0 int5a6 empty empty 17 7 0 10 -262144
-1 -1;
#X obj 262 132 bng 15 250 50 0 int5a7 empty empty 17 7 0 10 -262144
-1 -1;
#X obj 262 179 bng 15 250 50 0 int5a10 empty empty 17 7 0 10 -262144
-1 -1;
#X obj 359 179 bng 15 250 50 0 int5a11 empty empty 17 7 0 10 -262144
-1 -1;
#X obj 359 38 bng 15 250 50 0 int5a2 empty empty 17 7 0 10 -262144
-1 -1;
#X obj 359 132 bng 15 250 50 0 int5a8 empty empty 17 7 0 10 -262144
-1 -1;
#X symbolatom 442 84 12 0 0 0 - int5R -;
#X text 439 64 Result;
#X text 243 8 Level 5;
#X text 150 53 unison;
#X text 326 53 major second;
#X text 228 53 minor second;
#X text 132 99 minor third;
#X text 231 99 major third;
#X text 322 99 perfect fourth;
#X text 133 147 dim. fifth;
#X text 227 147 perfect fifth;
#X text 333 147 minor sixth;
#X text 133 193 major sixth;
#X text 229 193 minor seventh;
#X text 326 193 major seventh;
#X text 219 240 perfect octave;
#X obj 359 85 bng 15 250 50 0 int5a5 empty empty 17 7 0 10 -262144
-1 -1;
#X text 11 54 New interval;
#X restore 57 75 pd Level5;
#N canvas 451 333 1113 603 Level4 0;
#N canvas 163 191 450 278 (subpatch) 0;
#X coords 0 1 100 -1 320 240 1 0 0;
#X restore 111 29 graph;
#X floatatom 442 46 5 0 0 0 - score -;
#X obj 74 29 bng 25 250 50 0 int4S empty empty 17 7 0 10 -114521 -33289
-33289;
#X text 440 24 Score;
#X obj 165 132 bng 15 250 50 0 int4a0 empty empty 17 7 0 10 -262144
-1 -1;
#X obj 262 179 bng 15 250 50 0 int4a2 empty empty 17 7 0 10 -262144
-1 -1;
#X obj 359 132 bng 15 250 50 0 int4a1 empty empty 17 7 0 10 -262144
-1 -1;
#X symbolatom 442 84 12 0 0 0 - int4R -;
#X text 439 64 Result;
#X text 133 147 dim. fifth;
#X text 333 147 minor sixth;
#X text 229 193 minor seventh;
#X text 11 54 New interval;
#X text 243 8 Level 4;
#X restore 98 51 pd Level4;
#N canvas 879 397 1078 623 Level2 0;
#N canvas 163 191 450 278 (subpatch) 0;
#X coords 0 1 100 -1 320 240 1 0 0;
#X restore 111 29 graph;
#X floatatom 442 46 5 0 0 0 - score -;
#X obj 74 29 bng 25 250 50 0 int2S empty empty 17 7 0 10 -114521 -33289
-33289;
#X obj 165 179 bng 15 250 50 0 int2a3 empty empty 17 7 0 10 -262144
-1 -1;
#X obj 262 38 bng 15 250 50 0 int2a0 empty empty 17 7 0 10 -262144
-1 -1;
#X text 440 24 Score;
#X obj 165 85 bng 15 250 50 0 int2a1 empty empty 17 7 0 10 -262144
-1 -1;
#X obj 359 179 bng 15 250 50 0 int2a4 empty empty 17 7 0 10 -262144
-1 -1;
#X symbolatom 442 84 12 0 0 0 - int2R -;
#X text 439 64 Result;
#X text 228 53 minor second;
#X text 132 99 minor third;
#X text 322 99 perfect fourth;
#X text 133 193 major sixth;
#X text 326 193 major seventh;
#X obj 359 85 bng 15 250 50 0 int2a2 empty empty 17 7 0 10 -262144
-1 -1;
#X text 11 54 New interval;
#X text 243 8 Level 2;
#X restore 98 27 pd Level2;
#X restore 26 54 pd Intervals;
#N canvas 1115 243 921 545 Scales 0;
#X restore 26 120 pd Scales;
#N canvas 40 269 1107 736 Chords 0;
#N canvas 163 191 450 278 (subpatch) 0;
#X coords 0 1 100 -1 320 240 1 0 0;
#X restore 111 29 graph;
#X floatatom 442 46 5 0 0 0 - score -;
#X obj 74 29 bng 25 250 50 0 int5S empty empty 17 7 0 10 -114521 -33289
-33289;
#X obj 165 38 bng 15 250 50 0 int5a0 empty empty 17 7 0 10 -262144
-1 -1;
#X obj 165 179 bng 15 250 50 0 int5a9 empty empty 17 7 0 10 -262144
-1 -1;
#X obj 262 38 bng 15 250 50 0 int5a1 empty empty 17 7 0 10 -262144
-1 -1;
#X obj 262 85 bng 15 250 50 0 int5a4 empty empty 17 7 0 10 -262144
-1 -1;
#X obj 262 226 bng 15 250 50 0 int5a12 empty empty 17 7 0 10 -262144
-1 -1;
#X text 440 24 Score;
#X obj 165 85 bng 15 250 50 0 int5a3 empty empty 17 7 0 10 -262144
-1 -1;
#X obj 165 132 bng 15 250 50 0 int5a6 empty empty 17 7 0 10 -262144
-1 -1;
#X obj 262 132 bng 15 250 50 0 int5a7 empty empty 17 7 0 10 -262144
-1 -1;
#X obj 262 179 bng 15 250 50 0 int5a10 empty empty 17 7 0 10 -262144
-1 -1;
#X obj 359 179 bng 15 250 50 0 int5a11 empty empty 17 7 0 10 -262144
-1 -1;
#X obj 359 38 bng 15 250 50 0 int5a2 empty empty 17 7 0 10 -262144
-1 -1;
#X obj 359 132 bng 15 250 50 0 int5a8 empty empty 17 7 0 10 -262144
-1 -1;
#X symbolatom 442 84 12 0 0 0 - int5R -;
#X text 439 64 Result;
#X obj 359 85 bng 15 250 50 0 int5a5 empty empty 17 7 0 10 -262144
-1 -1;
#X text 245 8 Chords;
#X text 25 54 Play Chord;
#X text 150 53 major;
#X text 250 53 minor;
#X text 352 53 sus2;
#X text 156 99 sus4;
#X text 256 99 aug;
#X text 353 99 dim;
#X text 157 147 inv1;
#X text 253 147 inv2;
#X text 360 147 6;
#X text 164 193 m7;
#X text 255 193 maj7;
#X text 351 193 add9;
#X text 248 240 add11;
#X restore 26 87 pd Chords;
#X text 27 29 Ear training in PureData;
#X obj 126 153 cnv 15 80 24 empty empty empty 20 12 0 14 -262144 -66577
0;
#X floatatom 128 70 5 0 0 0 - score -;
#X text 126 48 Score;
#X coords 0 189.5 1 188.5 170 120 0;
