#N canvas 259 501 496 339 12;
#N canvas 0 22 450 300 Tempo 0;
#X restore 26 129 pd Tempo;
#N canvas 0 22 450 278 (subpatch) 0;
#X coords 0 1 100 -1 98 128 1 0 0;
#X restore 22 26 graph;
#X floatatom 126 56 5 0 0 0 - - -;
#X obj 126 98 bng 15 250 50 0 resetScore startup empty 17 7 0 10 -262144
-1 -1;
#X text 141 95 reset score;
#N canvas 697 767 450 300 backend 1;
#X text 21 8 Increase Score;
#X obj 5 11 bng 15 250 50 0 scoreUp empty empty 17 7 0 10 -262144 -1
-1;
#N canvas 142 259 450 300 score 0;
#X obj 105 103 outlet;
#X obj 155 103 s score;
#X floatatom 105 77 5 0 0 0 - - -;
#X obj 105 8 r scoreUp;
#X obj 105 31 f;
#X obj 105 54 + 1;
#X obj 11 8 r resetScore;
#X msg 11 31 -1;
#X connect 2 0 1 0;
#X connect 2 0 0 0;
#X connect 2 0 4 1;
#X connect 3 0 4 0;
#X connect 4 0 5 0;
#X connect 5 0 2 0;
#X connect 6 0 7 0;
#X connect 7 0 4 0;
#X restore 205 12 pd score;
#X floatatom 205 38 5 0 0 0 - - -;
#X text 244 38 current score;
#N canvas 1033 696 450 300 int 1;
#N canvas 25 247 1344 504 int5 1;
#X obj 34 19 r int5S;
#X obj 34 43 random 13;
#X text 105 44 picks a random interval to check;
#X text 678 154 store which interval was chosen;
#X floatatom 608 178 5 0 0 0 - - -;
#X obj 41 67 s int5int;
#X obj 608 155 r int5int;
#N canvas 446 324 241 271 int5A 0;
#X obj 6 234 outlet;
#X msg 6 29 0;
#X msg 75 29 1;
#X msg 144 29 2;
#X msg 6 74 3;
#X msg 75 74 4;
#X msg 144 74 5;
#X msg 6 120 6;
#X msg 75 120 7;
#X msg 144 120 8;
#X msg 6 166 9;
#X msg 75 166 10;
#X msg 144 166 11;
#X msg 6 211 12;
#X obj 6 6 r int5a0;
#X obj 75 6 r int5a1;
#X obj 144 6 r int5a2;
#X obj 6 51 r int5a3;
#X obj 75 51 r int5a4;
#X obj 144 51 r int5a5;
#X obj 6 97 r int5a6;
#X obj 75 97 r int5a7;
#X obj 144 97 r int5a8;
#X obj 144 143 r int5a11;
#X obj 75 143 r int5a10;
#X obj 6 143 r int5a9;
#X obj 6 188 r int5a12;
#X connect 1 0 0 0;
#X connect 2 0 0 0;
#X connect 3 0 0 0;
#X connect 4 0 0 0;
#X connect 5 0 0 0;
#X connect 6 0 0 0;
#X connect 7 0 0 0;
#X connect 8 0 0 0;
#X connect 9 0 0 0;
#X connect 10 0 0 0;
#X connect 11 0 0 0;
#X connect 12 0 0 0;
#X connect 13 0 0 0;
#X connect 14 0 1 0;
#X connect 15 0 2 0;
#X connect 16 0 3 0;
#X connect 17 0 4 0;
#X connect 18 0 5 0;
#X connect 19 0 6 0;
#X connect 20 0 7 0;
#X connect 21 0 8 0;
#X connect 22 0 9 0;
#X connect 23 0 12 0;
#X connect 24 0 11 0;
#X connect 25 0 10 0;
#X connect 26 0 13 0;
#X restore 544 155 pd int5A;
#X floatatom 544 178 5 0 0 0 - - -;
#X text 382 154 which answer was given;
#X obj 544 200 ==;
#X text 579 200 check if answer was correct;
#X obj 544 224 tgl 20 0 empty empty empty 17 7 0 10 -262144 -1 -1 1
1;
#X obj 34 91 sel 0 1 2 3 4 5 6 7 8 9 10 11 12;
#X obj 576 279 bng 15 250 50 0 empty empty empty 17 7 0 10 -262144
-1 -1;
#X obj 544 279 bng 15 250 50 0 empty empty empty 17 7 0 10 -262144
-1 -1;
#X obj 544 250 sel 1;
#X text 489 277 correct;
#X text 595 277 incorrect;
#X obj 411 255 bng 15 250 50 0 empty empty empty 17 7 0 10 -262144
-1 -1;
#X msg 411 299 -1;
#X obj 411 275 delay 1;
#X text 310 253 reset checker;
#X obj 576 322 s int5R;
#X obj 449 299 symbol Correct!;
#X obj 576 299 symbol Incorrect!;
#X text 632 323 Send feedback of the result to the UI;
#X obj 492 322 s scoreUp;
#X text 339 322 Increase score by one;
#X connect 0 0 1 0;
#X connect 1 0 5 0;
#X connect 1 0 13 0;
#X connect 4 0 10 1;
#X connect 6 0 4 0;
#X connect 7 0 8 0;
#X connect 8 0 10 0;
#X connect 10 0 12 0;
#X connect 12 0 16 0;
#X connect 14 0 25 0;
#X connect 15 0 19 0;
#X connect 15 0 24 0;
#X connect 15 0 27 0;
#X connect 16 0 15 0;
#X connect 16 1 14 0;
#X connect 19 0 21 0;
#X connect 20 0 4 0;
#X connect 21 0 20 0;
#X connect 24 0 23 0;
#X connect 25 0 23 0;
#X restore 10 10 pd int5;
#X restore 205 64 pd int;
#X connect 2 0 3 0;
#X coords 0 0 0.5 0.5 170 120 0;
#X restore 127 130 pd backend;
#X obj 126 30 r score;
#N canvas 405 490 728 600 Intervals 0;
#X obj 189 26 r score;
#X floatatom 189 50 5 0 0 0 - - -;
#N canvas 0 22 450 278 (subpatch) 0;
#X coords 0 1 100 -1 170 80 1 0 0;
#X restore 11 21 graph;
#N canvas 297 468 1025 561 Level 0;
#N canvas 163 191 450 278 (subpatch) 0;
#X coords 0 1 100 -1 320 240 1 0 0;
#X restore 99 22 graph;
#X floatatom 429 39 5 0 0 0 - score -;
#X obj 61 22 bng 25 250 50 0 int1S empty empty 17 7 0 10 -114521 -33289
-33289;
#X text 9 47 Start track;
#X obj 152 31 bng 15 250 50 0 empty empty empty 17 7 0 10 -262144 -1
-1;
#X obj 152 172 bng 15 250 50 0 empty empty empty 17 7 0 10 -262144
-1 -1;
#X obj 249 31 bng 15 250 50 0 empty empty empty 17 7 0 10 -262144 -1
-1;
#X obj 249 78 bng 15 250 50 0 empty empty empty 17 7 0 10 -262144 -1
-1;
#X obj 249 219 bng 15 250 50 0 empty empty empty 17 7 0 10 -262144
-1 -1;
#X text 427 17 Score;
#X obj 152 78 bng 15 250 50 0 empty empty empty 17 7 0 10 -262144 -1
-1;
#X obj 152 125 bng 15 250 50 0 empty empty empty 17 7 0 10 -262144
-1 -1;
#X obj 249 125 bng 15 250 50 0 empty empty empty 17 7 0 10 -262144
-1 -1;
#X obj 249 172 bng 15 250 50 0 empty empty empty 17 7 0 10 -262144
-1 -1;
#X obj 346 172 bng 15 250 50 0 empty empty empty 17 7 0 10 -262144
-1 -1;
#X obj 346 31 bng 15 250 50 0 empty empty empty 17 7 0 10 -262144 -1
-1;
#X obj 346 78 bng 15 250 50 0 empty empty empty 17 7 0 10 -262144 -1
-1;
#X obj 346 125 bng 15 250 50 0 empty empty empty 17 7 0 10 -262144
-1 -1;
#X text 141 46 prime;
#X text 216 46 kl. sekunde;
#X text 314 46 gr. sekunde;
#X text 127 92 kl. terts;
#X text 226 92 gr. terts;
#X text 335 92 kwart;
#X text 220 140 reine kwint;
#X text 120 140 verm. kwint;
#X text 326 140 kl. sext;
#X text 129 186 gr. sext;
#X text 218 186 kl. septiem;
#X text 315 186 gr. septiem;
#X text 234 233 octaaf;
#X text 226 1 Niveau 1;
#X restore 18 27 pd Level 1;
#N canvas 0 22 1440 800 Level 0;
#X restore 98 27 pd Level 2;
#N canvas 656 504 1440 800 Level 1;
#X restore 98 51 pd Level 4;
#N canvas 0 22 1440 800 Level 0;
#X restore 18 51 pd Level 3;
#N canvas 686 312 1425 885 Level 1;
#N canvas 163 191 450 278 (subpatch) 0;
#X coords 0 1 100 -1 320 240 1 0 0;
#X restore 111 29 graph;
#X floatatom 442 46 5 0 0 0 - score -;
#X obj 74 29 bng 25 250 50 0 int5S empty empty 17 7 0 10 -114521 -33289
-33289;
#X obj 165 38 bng 15 250 50 0 int5a0 empty empty 17 7 0 10 -262144
-1 -1;
#X obj 165 179 bng 15 250 50 0 int5a9 empty empty 17 7 0 10 -262144
-1 -1;
#X obj 262 38 bng 15 250 50 0 int5a1 empty empty 17 7 0 10 -262144
-1 -1;
#X obj 262 85 bng 15 250 50 0 int5a4 empty empty 17 7 0 10 -262144
-1 -1;
#X obj 262 226 bng 15 250 50 0 int5a12 empty empty 17 7 0 10 -262144
-1 -1;
#X text 440 24 Score;
#X obj 165 85 bng 15 250 50 0 int5a3 empty empty 17 7 0 10 -262144
-1 -1;
#X obj 165 132 bng 15 250 50 0 int5a6 empty empty 17 7 0 10 -262144
-1 -1;
#X obj 262 132 bng 15 250 50 0 int5a7 empty empty 17 7 0 10 -262144
-1 -1;
#X obj 262 179 bng 15 250 50 0 int5a10 empty empty 17 7 0 10 -262144
-1 -1;
#X obj 359 179 bng 15 250 50 0 int5a11 empty empty 17 7 0 10 -262144
-1 -1;
#X obj 359 38 bng 15 250 50 0 int5a2 empty empty 17 7 0 10 -262144
-1 -1;
#X obj 359 132 bng 15 250 50 0 int5a8 empty empty 17 7 0 10 -262144
-1 -1;
#X symbolatom 442 84 12 0 0 0 - int5R -;
#X text 439 64 Result;
#X text 243 8 Level 5;
#X text 9 54 Play interval;
#X text 150 53 unison;
#X text 326 53 major second;
#X text 228 53 minor second;
#X text 132 99 minor third;
#X text 231 99 major third;
#X text 322 99 perfect fourth;
#X text 133 147 dim. fifth;
#X text 227 147 perfect fifth;
#X text 333 147 minor sixth;
#X text 133 193 major sixth;
#X text 229 193 minor seventh;
#X text 326 193 major seventh;
#X text 219 240 perfect octave;
#X obj 359 85 bng 15 250 50 0 int5a5 empty empty 17 7 0 10 -262144
-1 -1;
#X restore 57 75 pd Level 5;
#X text 70 1 Levels;
#X connect 0 0 1 0;
#X restore 26 30 pd Intervals;
#N canvas 0 22 450 300 Scales 0;
#X restore 26 96 pd Scales;
#N canvas 0 22 450 300 Chords 0;
#X restore 26 63 pd Chords;
#X text 27 5 Ear training in PureData;
#X obj 126 129 cnv 15 80 24 empty empty empty 20 12 0 14 -262144 -66577
0;
#X connect 6 0 2 0;
#X coords 0 169.5 1 168.5 170 120 0;
